<svg xmlns="http://www.w3.org/2000/svg" viewBox="0 0 38.17 38.17"><defs><style>.cls-1{fill:#ffc200;}</style></defs><title>icon-instagram</title><g id="Layer_2" data-name="Layer 2"><g id="Layer_1-2" data-name="Layer 1"><path class="cls-1" d="M19.08,22.43a3.36,3.36,0,0,0,3.36-3.35,3.3,3.3,0,0,0-.64-1.95,3.33,3.33,0,0,0-5.43,0,3.3,3.3,0,0,0-.64,1.95,3.36,3.36,0,0,0,3.35,3.35"/><path class="cls-1" d="M28.6,17.13v7.79a3.68,3.68,0,0,1-3.68,3.68H13.24a3.68,3.68,0,0,1-3.68-3.68V13.24a3.68,3.68,0,0,1,3.68-3.68H24.92a3.68,3.68,0,0,1,3.68,3.68ZM19.08,0A19.09,19.09,0,1,0,38.17,19.08,19.08,19.08,0,0,0,19.08,0"/><path class="cls-1" d="M24.29,19.08a5.21,5.21,0,1,1-10.41,0,5.06,5.06,0,0,1,.38-1.95H11.42v7.79a1.83,1.83,0,0,0,1.82,1.83H24.92a1.83,1.83,0,0,0,1.83-1.83V17.13H23.91a5.25,5.25,0,0,1,.38,1.95"/><polygon class="cls-1" points="26.4 14.98 26.4 12.18 26.4 11.76 25.98 11.76 23.17 11.77 23.18 14.99 26.4 14.98"/></g></g></svg>