<svg xmlns="http://www.w3.org/2000/svg" viewBox="0 0 38.17 38.17"><defs><style>.cls-1{fill:#ff4040;}</style></defs><title>icon-twitter</title><g id="Layer_2" data-name="Layer 2"><g id="Layer_1-2" data-name="Layer 1"><path class="cls-1" d="M28.7,15.24c0,.2,0,.41,0,.62a13.67,13.67,0,0,1-21,11.52,8.51,8.51,0,0,0,1.14.07,9.66,9.66,0,0,0,6-2.06,4.83,4.83,0,0,1-4.5-3.34,4.6,4.6,0,0,0,.91.09A4.86,4.86,0,0,0,12.46,22,4.81,4.81,0,0,1,8.6,17.25v-.06a4.74,4.74,0,0,0,2.18.6,4.82,4.82,0,0,1-1.49-6.42,13.64,13.64,0,0,0,9.91,5,4.94,4.94,0,0,1-.12-1.1A4.81,4.81,0,0,1,27.4,12a9.56,9.56,0,0,0,3.05-1.17,4.79,4.79,0,0,1-2.11,2.66,9.56,9.56,0,0,0,2.76-.75,10,10,0,0,1-2.4,2.49M19.08,0A19.09,19.09,0,1,0,38.17,19.08,19.08,19.08,0,0,0,19.08,0"/></g></g></svg>