<svg xmlns="http://www.w3.org/2000/svg" viewBox="0 0 38.17 38.17"><defs><style>.cls-1{fill:#00b0a8;}</style></defs><title>icon-email</title><g id="Layer_2" data-name="Layer 2"><g id="Layer_1-2" data-name="Layer 1"><path class="cls-1" d="M30,26.1a1.64,1.64,0,0,1-1.64,1.65H9.79a1.58,1.58,0,0,1-.65-.14l19.71-12a.22.22,0,0,0,.09-.26l0,0-.09-.09,0,0-3.36-2.42.63-.63,3.28,2.37a1.56,1.56,0,0,1,.59.81,1.72,1.72,0,0,1,.09.52Zm-21.88,0V15.86a1.72,1.72,0,0,1,.09-.52h0a1.64,1.64,0,0,1,.6-.81l9.29-6.71a1.64,1.64,0,0,1,1.93,0l3.39,2.45-.63.62L19.53,8.53a.78.78,0,0,0-.9,0L9.34,15.24s-.06.06-.09.09l9.61,5.85L8.73,27.35a1.63,1.63,0,0,1-.59-1.25M25.61,8.8a.2.2,0,0,1,.16.07l1.33,1.32a.23.23,0,0,1,0,.31l-7.79,7.79a.22.22,0,0,1-.15.06.25.25,0,0,1-.16-.06l-3.89-3.9a.2.2,0,0,1-.06-.15.23.23,0,0,1,.06-.16l1.33-1.33a.23.23,0,0,1,.31,0l2.41,2.42,6.3-6.3a.18.18,0,0,1,.15-.07M19.08,0A19.09,19.09,0,1,0,38.17,19.08,19.08,19.08,0,0,0,19.08,0"/></g></g></svg>