<?xml version="1.0" encoding="UTF-8"?>
<svg width="80px" height="38px" viewBox="0 0 80 38" version="1.1" xmlns="http://www.w3.org/2000/svg" xmlns:xlink="http://www.w3.org/1999/xlink">
    <!-- Generator: Sketch 52.6 (67491) - http://www.bohemiancoding.com/sketch -->
    <title>sign-up-cta-white</title>
    <desc>Created with Sketch.</desc>
    <g id="Page-1" stroke="none" stroke-width="1" fill="none" fill-rule="evenodd">
        <g id="sign-up-cta-white">
            <rect id="Rectangle" stroke="#000000" x="0.5" y="0.5" width="79" height="37" rx="6"></rect>
            <path d="M15.1289999,15.82 C15.1289999,16.342 15.4169999,16.702 16.2629999,17.026 L17.8289999,17.638 C19.4489999,18.304 20.4029999,19.384 20.4029999,21.238 C20.4029999,23.758 18.6209999,25.234 16.1189999,25.234 C12.5549999,25.234 11.9069999,22.912 12.0149999,21.094 L14.8589999,21.094 C14.8229999,21.886 15.1289999,22.66 16.1189999,22.66 C16.8029999,22.66 17.3069999,22.282 17.3069999,21.562 C17.3069999,20.86 16.8029999,20.518 15.9929999,20.212 C15.3629999,19.96 14.7329999,19.726 14.0489999,19.384 C12.7889999,18.736 12.1229999,17.512 12.1229999,16 C12.1229999,13.822 13.7069999,12.31 16.1369999,12.31 C19.0709999,12.31 20.1329999,13.984 20.0069999,16.198 L17.2349999,16.198 C17.2529999,15.424 16.8569999,14.884 16.1549999,14.884 C15.4709999,14.884 15.1289999,15.298 15.1289999,15.82 Z M24.2549999,15.37 L24.2549999,25 L21.3569999,25 L21.3569999,15.37 L24.2549999,15.37 Z M22.7609999,14.992 C21.8429999,14.992 21.1229999,14.254 21.1229999,13.354 C21.1229999,12.436 21.8429999,11.698 22.7609999,11.698 C23.6789999,11.698 24.4169999,12.436 24.4169999,13.354 C24.4169999,14.254 23.6789999,14.992 22.7609999,14.992 Z M32.5709999,15.982 L32.5709999,15.37 L35.2889999,15.37 L35.2889999,23.398 C35.2889999,26.998 33.1469999,28.312 30.0509999,28.312 C28.6289999,28.312 27.3869999,27.934 26.5949999,27.52 L27.4589999,25.27 C27.9989999,25.522 28.9889999,25.828 30.0689999,25.828 C31.3829999,25.828 32.3909999,25.36 32.4089999,24.424 C31.9949999,24.784 31.2749999,25.162 30.1229999,25.162 C27.1169999,25.162 25.1189999,23.146 25.1189999,20.212 C25.1189999,17.458 27.0989999,15.208 30.0149999,15.208 C31.0949999,15.208 31.9769999,15.478 32.5709999,15.982 Z M27.9989999,20.194 C27.9989999,21.544 28.9169999,22.588 30.2489999,22.588 C31.6709999,22.588 32.4989999,21.526 32.4989999,20.194 C32.4989999,18.844 31.6169999,17.782 30.2489999,17.782 C28.8449999,17.782 27.9989999,18.844 27.9989999,20.194 Z M41.3549999,25 L41.3549999,19.006 C41.3549999,18.304 41.0129999,17.836 40.3289999,17.836 C39.6629999,17.836 39.3029999,18.286 39.3029999,18.988 L39.3029999,25 L36.4049999,25 L36.4049999,15.37 L39.3029999,15.37 L39.3029999,15.982 C39.5189999,15.784 40.0769999,15.262 41.2469999,15.262 C43.5149999,15.262 44.2529999,16.81 44.2529999,18.664 L44.2529999,25 L41.3549999,25 Z M50.9309999,15.37 L50.9309999,21.346 C50.9309999,22.048 51.2189999,22.516 51.9029999,22.516 C52.5689999,22.516 52.9289999,22.048 52.9289999,21.346 L52.9289999,15.37 L55.8269999,15.37 L55.8269999,25 L52.9469999,25 L52.9469999,24.388 C52.7309999,24.622 52.1189999,25.108 51.0389999,25.108 C48.8789999,25.108 48.0329999,23.686 48.0329999,21.688 L48.0329999,15.37 L50.9309999,15.37 Z M59.7869999,20.194 C59.7869999,21.58 60.6869999,22.588 62.0549999,22.588 C63.4769999,22.588 64.2869999,21.562 64.2869999,20.194 C64.2869999,18.808 63.4229999,17.782 62.0369999,17.782 C60.5969999,17.782 59.7869999,18.808 59.7869999,20.194 Z M59.8769999,24.55 L59.8769999,28.15 L56.9789999,28.15 L56.9789999,15.37 L59.6969999,15.37 L59.6969999,15.982 C60.1469999,15.658 60.9569999,15.208 62.3789999,15.208 C65.3129999,15.208 67.1669999,17.278 67.1669999,20.158 C67.1669999,22.93 65.3309999,25.162 62.2349999,25.162 C61.2449999,25.162 60.3809999,24.874 59.8769999,24.55 Z M69.1289999,25.216 C68.1209999,25.216 67.3649999,24.442 67.3649999,23.434 C67.3649999,22.426 68.1029999,21.67 69.1289999,21.67 C70.1549999,21.67 70.8929999,22.426 70.8929999,23.434 C70.8929999,24.442 70.1369999,25.216 69.1289999,25.216 Z" id="Sign-up." fill="#000000"></path>
        </g>
    </g>
</svg>
