<svg id="Layer_1" data-name="Layer 1" xmlns="http://www.w3.org/2000/svg" viewBox="0 0 335.14 492.03"><defs><style>.cls-1{fill:#fab578;}.cls-2{fill:#ffe5ab;}.cls-3{fill:#665742;}</style></defs><title>wanda</title><path class="cls-1" d="M683,631c-80.34,0-193.3-81.95-162.33-214.26C552,282.79,548,139,683,139S814,282.79,845.33,416.77C876.3,549.08,763.34,631,683,631" transform="translate(-515.43 -139)"/><path class="cls-2" d="M777.63,199.15c0,23.36-42.37,33-94.63,33s-94.63-9.69-94.63-33S630.74,147.6,683,147.6s94.63,28.19,94.63,51.55" transform="translate(-515.43 -139)"/><path class="cls-3" d="M644.13,193.76H608.44c0-2.48,8-4.5,17.84-4.5s17.85,2,17.85,4.5" transform="translate(-515.43 -139)"/><path class="cls-3" d="M757.56,193.76H721.87c0-2.48,8-4.5,17.85-4.5s17.84,2,17.84,4.5" transform="translate(-515.43 -139)"/><path class="cls-3" d="M665.16,209.58h35.68c0,2.49-8,4.51-17.84,4.51s-17.84-2-17.84-4.51" transform="translate(-515.43 -139)"/></svg>