<?xml version="1.0" encoding="UTF-8"?>
<svg width="1050px" height="530px" viewBox="0 0 1050 530" version="1.1" xmlns="http://www.w3.org/2000/svg" xmlns:xlink="http://www.w3.org/1999/xlink">
    <!-- Generator: Sketch 53 (72520) - https://sketchapp.com -->
    <title>Artboard Copy 2</title>
    <desc>Created with Sketch.</desc>
    <g id="Artboard-Copy-2" stroke="none" stroke-width="1" fill="none" fill-rule="evenodd">
        <rect fill="#FFFFFF" x="0" y="0" width="1050" height="530"></rect>
        <g id="Group" transform="translate(45.000000, 327.000000)" fill-rule="nonzero">
            <path d="M2,2 L2,113 L248,113 L248,2 L2,2 Z M0,0 L250,0 L250,115 L0,115 L0,0 Z" id="Rectangle" fill="#DFDFDF"></path>
            <path d="M102.146,54 L95.568,36.008 L100.43,36.008 L104.642,48.514 L108.854,36.008 L113.482,36.008 L106.852,54 L102.146,54 Z M118.292,40.09 L118.292,54 L114.106,54 L114.106,40.09 L118.292,40.09 Z M116.134,39.544 C114.808,39.544 113.768,38.478 113.768,37.178 C113.768,35.852 114.808,34.786 116.134,34.786 C117.46,34.786 118.526,35.852 118.526,37.178 C118.526,38.478 117.46,39.544 116.134,39.544 Z M133.164,48.41 L123.882,48.41 C124.064,49.736 125.104,50.542 126.716,50.542 C128.198,50.542 129.056,49.684 129.55,48.904 L132.748,50.776 C131.968,52.388 130.148,54.234 126.69,54.234 C122.452,54.234 119.54,51.556 119.54,47.11 C119.54,42.95 122.322,39.856 126.378,39.856 C130.642,39.856 133.216,42.638 133.216,46.798 C133.216,47.214 133.216,47.708 133.164,48.41 Z M126.378,43.34 C124.922,43.34 124.09,44.354 123.986,45.472 L128.874,45.472 C128.77,44.328 127.886,43.34 126.378,43.34 Z M145.982,40.09 L147.958,48.618 L149.856,40.09 L154.198,40.09 L150.506,54 L145.878,54 L143.668,46.148 L141.536,54 L136.83,54 L132.93,40.09 L137.662,40.09 L139.534,48.618 L141.536,40.09 L145.982,40.09 Z M74.195,69.184 C75.6710074,69.184 76.909995,69.5499963 77.912,70.282 C78.914005,71.0140037 79.5889983,72.0099937 79.937,73.27 L78.209,73.27 C77.9089985,72.5019962 77.4080035,71.8840023 76.706,71.416 C76.0039965,70.9479977 75.1730048,70.714 74.213,70.714 C73.3489957,70.714 72.5750034,70.914998 71.891,71.317 C71.2069966,71.719002 70.6700019,72.2919963 70.28,73.036 C69.8899981,73.7800037 69.695,74.655995 69.695,75.664 C69.695,76.6960052 69.892998,77.5869962 70.289,78.337 C70.685002,79.0870038 71.2339965,79.662998 71.936,80.065 C72.6380035,80.467002 73.4449954,80.668 74.357,80.668 C75.1370039,80.668 75.8509968,80.5000017 76.499,80.164 C77.1470032,79.8279983 77.6779979,79.3390032 78.092,78.697 C78.5060021,78.0549968 78.7549996,77.3020043 78.839,76.438 L73.853,76.438 L73.853,75.214 L80.225,75.214 L80.225,76.726 C80.1169995,77.734005 79.8050026,78.6459959 79.289,79.462 C78.7729974,80.2780041 78.0770044,80.9259976 77.201,81.406 C76.3249956,81.8860024 75.3290056,82.126 74.213,82.126 C72.9889939,82.126 71.9090047,81.8530027 70.973,81.307 C70.0369953,80.7609973 69.3080026,79.9990049 68.786,79.021 C68.2639974,78.0429951 68.003,76.9240063 68.003,75.664 C68.003,74.4039937 68.2639974,73.2850049 68.786,72.307 C69.3080026,71.3289951 70.0369953,70.5640028 70.973,70.012 C71.9090047,69.4599972 72.9829939,69.184 74.195,69.184 Z M86.489,71.992 C87.4490048,71.992 88.2619967,72.2319976 88.928,72.712 C89.5940033,73.1920024 90.0589987,73.833996 90.323,74.638 L90.323,72.118 L91.961,72.118 L91.961,82 L90.323,82 L90.323,79.48 C90.0589987,80.284004 89.5940033,80.9259976 88.928,81.406 C88.2619967,81.8860024 87.4490048,82.126 86.489,82.126 C85.6129956,82.126 84.8330034,81.922002 84.149,81.514 C83.4649966,81.105998 82.9280019,80.5210038 82.538,79.759 C82.147998,78.9969962 81.953,78.1000052 81.953,77.068 C81.953,76.0359948 82.147998,75.1360038 82.538,74.368 C82.9280019,73.5999962 83.4649966,73.012002 84.149,72.604 C84.8330034,72.195998 85.6129956,71.992 86.489,71.992 Z M86.957,73.45 C85.948995,73.45 85.142003,73.7709968 84.536,74.413 C83.929997,75.0550032 83.627,75.9399944 83.627,77.068 C83.627,78.1960056 83.929997,79.0809968 84.536,79.723 C85.142003,80.3650032 85.948995,80.686 86.957,80.686 C87.6050032,80.686 88.1839974,80.5360015 88.694,80.236 C89.2040025,79.9359985 89.6029986,79.5130027 89.891,78.967 C90.1790014,78.4209973 90.323,77.7880036 90.323,77.068 C90.323,76.3479964 90.1790014,75.7120028 89.891,75.16 C89.6029986,74.6079972 89.2040025,74.1850015 88.694,73.891 C88.1839974,73.5969985 87.6050032,73.45 86.957,73.45 Z M106.721,71.956 C107.873006,71.956 108.799996,72.3249963 109.502,73.063 C110.204004,73.8010037 110.555,74.865993 110.555,76.258 L110.555,82 L108.917,82 L108.917,76.402 C108.917,75.4299951 108.680002,74.6860026 108.206,74.17 C107.731998,73.6539974 107.081004,73.396 106.253,73.396 C105.388996,73.396 104.696003,73.6809971 104.174,74.251 C103.651997,74.8210028 103.391,75.6579945 103.391,76.762 L103.391,82 L101.753,82 L101.753,76.402 C101.753,75.4299951 101.513002,74.6860026 101.033,74.17 C100.552998,73.6539974 99.9050041,73.396 99.089,73.396 C98.2129956,73.396 97.5140026,73.6809971 96.992,74.251 C96.4699974,74.8210028 96.209,75.6579945 96.209,76.762 L96.209,82 L94.571,82 L94.571,72.118 L96.209,72.118 L96.209,74.368 C96.4490012,73.5879961 96.8779969,72.9910021 97.496,72.577 C98.1140031,72.1629979 98.824996,71.956 99.629,71.956 C100.469004,71.956 101.197997,72.1689979 101.816,72.595 C102.434003,73.0210021 102.874999,73.6479959 103.139,74.476 C103.415001,73.671996 103.876997,73.0510022 104.525,72.613 C105.173003,72.1749978 105.904996,71.956 106.721,71.956 Z M122.183,76.51 C122.183,76.8580017 122.159,77.1579987 122.111,77.41 L114.209,77.41 C114.245,78.5380056 114.565997,79.3839972 115.172,79.948 C115.778003,80.5120028 116.518996,80.794 117.395,80.794 C118.187004,80.794 118.849997,80.593002 119.384,80.191 C119.918003,79.788998 120.244999,79.2520034 120.365,78.58 L122.111,78.58 C121.990999,79.2640034 121.724002,79.8759973 121.31,80.416 C120.895998,80.9560027 120.359003,81.3759985 119.699,81.676 C119.038997,81.9760015 118.295004,82.126 117.467,82.126 C116.518995,82.126 115.679004,81.922002 114.947,81.514 C114.214996,81.105998 113.642002,80.5210038 113.228,79.759 C112.813998,78.9969962 112.607,78.1000052 112.607,77.068 C112.607,76.0359948 112.813998,75.1360038 113.228,74.368 C113.642002,73.5999962 114.214996,73.012002 114.947,72.604 C115.679004,72.195998 116.518995,71.992 117.467,71.992 C118.427005,71.992 119.263996,72.195998 119.978,72.604 C120.692004,73.012002 121.237998,73.5579966 121.616,74.242 C121.994002,74.9260034 122.183,75.6819959 122.183,76.51 Z M120.527,76.618 C120.563,75.8859963 120.443001,75.2740025 120.167,74.782 C119.890999,74.2899975 119.513002,73.9240012 119.033,73.684 C118.552998,73.4439988 118.031003,73.324 117.467,73.324 C116.566995,73.324 115.811003,73.6029972 115.199,74.161 C114.586997,74.7190028 114.257,75.5379946 114.209,76.618 L120.527,76.618 Z M130.139,69.148 C131.315006,69.148 132.373995,69.4239972 133.316,69.976 C134.258005,70.5280028 134.998997,71.2989951 135.539,72.289 C136.079003,73.279005 136.349,74.3979938 136.349,75.646 C136.349,76.8940062 136.079003,78.0129951 135.539,79.003 C134.998997,79.9930049 134.258005,80.7639972 133.316,81.316 C132.373995,81.8680028 131.315006,82.144 130.139,82.144 C128.962994,82.144 127.898005,81.8680028 126.944,81.316 C125.989995,80.7639972 125.243003,79.9930049 124.703,79.003 C124.162997,78.0129951 123.893,76.8940062 123.893,75.646 C123.893,74.3979938 124.162997,73.279005 124.703,72.289 C125.243003,71.2989951 125.989995,70.5280028 126.944,69.976 C127.898005,69.4239972 128.962994,69.148 130.139,69.148 Z M130.139,70.678 C129.262996,70.678 128.480003,70.878998 127.79,71.281 C127.099997,71.683002 126.560002,72.2589962 126.17,73.009 C125.779998,73.7590038 125.585,74.637995 125.585,75.646 C125.585,76.642005 125.779998,77.5179962 126.17,78.274 C126.560002,79.0300038 127.099997,79.608998 127.79,80.011 C128.480003,80.413002 129.262996,80.614 130.139,80.614 C131.003004,80.614 131.779997,80.410002 132.47,80.002 C133.160003,79.593998 133.699998,79.0150038 134.09,78.265 C134.480002,77.5149962 134.675,76.642005 134.675,75.646 C134.675,74.637995 134.480002,73.7590038 134.09,73.009 C133.699998,72.2589962 133.160003,71.683002 132.47,71.281 C131.779997,70.878998 131.003004,70.678 130.139,70.678 Z M144.017,71.992 C144.893004,71.992 145.672997,72.195998 146.357,72.604 C147.041003,73.012002 147.577998,73.5999962 147.968,74.368 C148.358002,75.1360038 148.553,76.0359948 148.553,77.068 C148.553,78.1000052 148.358002,78.9969962 147.968,79.759 C147.577998,80.5210038 147.041003,81.105998 146.357,81.514 C145.672997,81.922002 144.893004,82.126 144.017,82.126 C143.056995,82.126 142.244003,81.8830024 141.578,81.397 C140.911997,80.9109976 140.453001,80.272004 140.201,79.48 L140.201,82 L138.563,82 L138.563,68.68 L140.201,68.68 L140.201,74.638 C140.453001,73.845996 140.911997,73.2070024 141.578,72.721 C142.244003,72.2349976 143.056995,71.992 144.017,71.992 Z M143.549,73.45 C142.912997,73.45 142.337003,73.5969985 141.821,73.891 C141.304997,74.1850015 140.903001,74.6079972 140.615,75.16 C140.326999,75.7120028 140.183,76.3479964 140.183,77.068 C140.183,77.7880036 140.326999,78.4209973 140.615,78.967 C140.903001,79.5130027 141.304997,79.9359985 141.821,80.236 C142.337003,80.5360015 142.912997,80.686 143.549,80.686 C144.569005,80.686 145.381997,80.3650032 145.988,79.723 C146.594003,79.0809968 146.897,78.1960056 146.897,77.068 C146.897,75.9399944 146.594003,75.0550032 145.988,74.413 C145.381997,73.7709968 144.569005,73.45 143.549,73.45 Z M151.631,70.228 C151.294998,70.228 151.022001,70.1350009 150.812,69.949 C150.601999,69.7629991 150.497,69.5200015 150.497,69.22 C150.497,68.9199985 150.601999,68.6770009 150.812,68.491 C151.022001,68.3049991 151.294998,68.212 151.631,68.212 C151.955002,68.212 152.218999,68.3049991 152.423,68.491 C152.627001,68.6770009 152.729,68.9199985 152.729,69.22 C152.729,69.5200015 152.627001,69.7629991 152.423,69.949 C152.218999,70.1350009 151.955002,70.228 151.631,70.228 Z M148.877,85.24 L149.561,85.24 C149.993002,85.24 150.307999,85.144001 150.506,84.952 C150.704001,84.759999 150.803,84.4300023 150.803,83.962 L150.803,72.118 L152.459,72.118 L152.459,84.016 C152.459,85.7920089 151.559009,86.68 149.759,86.68 L148.877,86.68 L148.877,85.24 Z M164.159,76.51 C164.159,76.8580017 164.135,77.1579987 164.087,77.41 L156.185,77.41 C156.221,78.5380056 156.541997,79.3839972 157.148,79.948 C157.754003,80.5120028 158.494996,80.794 159.371,80.794 C160.163004,80.794 160.825997,80.593002 161.36,80.191 C161.894003,79.788998 162.220999,79.2520034 162.341,78.58 L164.087,78.58 C163.966999,79.2640034 163.700002,79.8759973 163.286,80.416 C162.871998,80.9560027 162.335003,81.3759985 161.675,81.676 C161.014997,81.9760015 160.271004,82.126 159.443,82.126 C158.494995,82.126 157.655004,81.922002 156.923,81.514 C156.190996,81.105998 155.618002,80.5210038 155.204,79.759 C154.789998,78.9969962 154.583,78.1000052 154.583,77.068 C154.583,76.0359948 154.789998,75.1360038 155.204,74.368 C155.618002,73.5999962 156.190996,73.012002 156.923,72.604 C157.655004,72.195998 158.494995,71.992 159.443,71.992 C160.403005,71.992 161.239996,72.195998 161.954,72.604 C162.668004,73.012002 163.213998,73.5579966 163.592,74.242 C163.970002,74.9260034 164.159,75.6819959 164.159,76.51 Z M162.503,76.618 C162.539,75.8859963 162.419001,75.2740025 162.143,74.782 C161.866999,74.2899975 161.489002,73.9240012 161.009,73.684 C160.528998,73.4439988 160.007003,73.324 159.443,73.324 C158.542995,73.324 157.787003,73.6029972 157.175,74.161 C156.562997,74.7190028 156.233,75.5379946 156.185,76.618 L162.503,76.618 Z M170.675,71.992 C171.935006,71.992 172.978996,72.3279966 173.807,73 C174.635004,73.6720034 175.144999,74.5719944 175.337,75.7 L173.609,75.7 C173.488999,74.9919965 173.162003,74.437002 172.628,74.035 C172.093997,73.632998 171.431004,73.432 170.639,73.432 C170.062997,73.432 169.538002,73.5639987 169.064,73.828 C168.589998,74.0920013 168.209001,74.4969973 167.921,75.043 C167.632999,75.5890027 167.489,76.263996 167.489,77.068 C167.489,77.872004 167.632999,78.5469973 167.921,79.093 C168.209001,79.6390027 168.589998,80.0439987 169.064,80.308 C169.538002,80.5720013 170.062997,80.704 170.639,80.704 C171.431004,80.704 172.093997,80.500002 172.628,80.092 C173.162003,79.683998 173.488999,79.1260035 173.609,78.418 L175.337,78.418 C175.144999,79.5580057 174.635004,80.4609967 173.807,81.127 C172.978996,81.7930033 171.935006,82.126 170.675,82.126 C169.726995,82.126 168.887004,81.922002 168.155,81.514 C167.422996,81.105998 166.850002,80.5210038 166.436,79.759 C166.021998,78.9969962 165.815,78.1000052 165.815,77.068 C165.815,76.0359948 166.021998,75.1360038 166.436,74.368 C166.850002,73.5999962 167.422996,73.012002 168.155,72.604 C168.887004,72.195998 169.726995,71.992 170.675,71.992 Z M182.195,80.56 L182.195,82 L180.971,82 C179.962995,82 179.210002,81.7600024 178.712,81.28 C178.213998,80.7999976 177.965,79.9960056 177.965,78.868 L177.965,73.54 L176.489,73.54 L176.489,72.118 L177.965,72.118 L177.965,69.652 L179.621,69.652 L179.621,72.118 L182.177,72.118 L182.177,73.54 L179.621,73.54 L179.621,78.904 C179.621,79.5400032 179.737999,79.9749988 179.972,80.209 C180.206001,80.4430012 180.610997,80.56 181.187,80.56 L182.195,80.56 Z" id="ViewGameObject" fill="#000000"></path>
        </g>
        <g id="Group-Copy" transform="translate(755.000000, 327.000000)" fill-rule="nonzero">
            <path d="M2,2 L2,113 L248,113 L248,2 L2,2 Z M0,0 L250,0 L250,115 L0,115 L0,0 Z" id="Rectangle" fill="#DFDFDF"></path>
            <path d="M105.37,41.364 L101.106,54 L96.998,54 L92.734,41.364 L92.734,54 L88.73,54 L88.73,36.008 L95.23,36.008 L99.208,48.202 L103.186,36.008 L109.556,36.008 L109.556,54 L105.37,54 L105.37,41.364 Z M115.172,47.058 C115.172,49.008 116.472,50.464 118.344,50.464 C120.32,50.464 121.49,48.982 121.49,47.058 C121.49,45.108 120.216,43.626 118.318,43.626 C116.342,43.626 115.172,45.108 115.172,47.058 Z M111.012,47.084 C111.012,43.028 114.028,39.856 118.292,39.856 C122.842,39.856 125.65,42.976 125.65,47.006 C125.65,51.062 122.738,54.234 118.318,54.234 C113.846,54.234 111.012,51.114 111.012,47.084 Z M137.35,54 L137.35,53.09 C136.414,53.87 135.036,54.234 133.684,54.234 C129.316,54.234 126.482,51.244 126.482,47.084 C126.482,43.106 129.29,39.856 133.502,39.856 C135.062,39.856 136.18,40.194 137.012,40.714 L137.012,34.994 L141.198,34.994 L141.198,54 L137.35,54 Z M130.642,47.032 C130.642,48.982 131.968,50.49 133.892,50.49 C135.946,50.49 137.142,48.956 137.142,47.032 C137.142,45.082 135.868,43.548 133.892,43.548 C131.864,43.548 130.642,45.082 130.642,47.032 Z M156.07,48.41 L146.788,48.41 C146.97,49.736 148.01,50.542 149.622,50.542 C151.104,50.542 151.962,49.684 152.456,48.904 L155.654,50.776 C154.874,52.388 153.054,54.234 149.596,54.234 C145.358,54.234 142.446,51.556 142.446,47.11 C142.446,42.95 145.228,39.856 149.284,39.856 C153.548,39.856 156.122,42.638 156.122,46.798 C156.122,47.214 156.122,47.708 156.07,48.41 Z M149.284,43.34 C147.828,43.34 146.996,44.354 146.892,45.472 L151.78,45.472 C151.676,44.328 150.792,43.34 149.284,43.34 Z M161.478,34.994 L161.478,54 L157.292,54 L157.292,34.994 L161.478,34.994 Z M66.347,82 L63.035,76.816 L61.253,76.816 L61.253,82 L59.615,82 L59.615,69.31 L63.791,69.31 C65.2310072,69.31 66.3109964,69.6549965 67.031,70.345 C67.7510036,71.0350035 68.111,71.9499943 68.111,73.09 C68.111,74.1220052 67.8230029,74.9529969 67.247,75.583 C66.6709971,76.2130031 65.8370055,76.6059992 64.745,76.762 L68.201,82 L66.347,82 Z M61.253,75.628 L63.647,75.628 C65.5070093,75.628 66.437,74.8120082 66.437,73.18 C66.437,71.5479918 65.5070093,70.732 63.647,70.732 L61.253,70.732 L61.253,75.628 Z M79.199,76.51 C79.199,76.8580017 79.1750002,77.1579987 79.127,77.41 L71.225,77.41 C71.2610002,78.5380056 71.581997,79.3839972 72.188,79.948 C72.794003,80.5120028 73.5349956,80.794 74.411,80.794 C75.203004,80.794 75.8659973,80.593002 76.4,80.191 C76.9340027,79.788998 77.2609994,79.2520034 77.381,78.58 L79.127,78.58 C79.0069994,79.2640034 78.7400021,79.8759973 78.326,80.416 C77.9119979,80.9560027 77.3750033,81.3759985 76.715,81.676 C76.0549967,81.9760015 75.3110041,82.126 74.483,82.126 C73.5349953,82.126 72.6950037,81.922002 71.963,81.514 C71.2309963,81.105998 70.6580021,80.5210038 70.244,79.759 C69.8299979,78.9969962 69.623,78.1000052 69.623,77.068 C69.623,76.0359948 69.8299979,75.1360038 70.244,74.368 C70.6580021,73.5999962 71.2309963,73.012002 71.963,72.604 C72.6950037,72.195998 73.5349953,71.992 74.483,71.992 C75.4430048,71.992 76.2799964,72.195998 76.994,72.604 C77.7080036,73.012002 78.2539981,73.5579966 78.632,74.242 C79.0100019,74.9260034 79.199,75.6819959 79.199,76.51 Z M77.543,76.618 C77.5790002,75.8859963 77.4590014,75.2740025 77.183,74.782 C76.9069986,74.2899975 76.5290024,73.9240012 76.049,73.684 C75.5689976,73.4439988 75.0470028,73.324 74.483,73.324 C73.5829955,73.324 72.8270031,73.6029972 72.215,74.161 C71.6029969,74.7190028 71.2730002,75.5379946 71.225,76.618 L77.543,76.618 Z M85.391,71.992 C86.3510048,71.992 87.1639967,72.2319976 87.83,72.712 C88.4960033,73.1920024 88.9609987,73.833996 89.225,74.638 L89.225,72.118 L90.863,72.118 L90.863,82 L89.225,82 L89.225,79.48 C88.9609987,80.284004 88.4960033,80.9259976 87.83,81.406 C87.1639967,81.8860024 86.3510048,82.126 85.391,82.126 C84.5149956,82.126 83.7350034,81.922002 83.051,81.514 C82.3669966,81.105998 81.8300019,80.5210038 81.44,79.759 C81.049998,78.9969962 80.855,78.1000052 80.855,77.068 C80.855,76.0359948 81.049998,75.1360038 81.44,74.368 C81.8300019,73.5999962 82.3669966,73.012002 83.051,72.604 C83.7350034,72.195998 84.5149956,71.992 85.391,71.992 Z M85.859,73.45 C84.850995,73.45 84.044003,73.7709968 83.438,74.413 C82.831997,75.0550032 82.529,75.9399944 82.529,77.068 C82.529,78.1960056 82.831997,79.0809968 83.438,79.723 C84.044003,80.3650032 84.850995,80.686 85.859,80.686 C86.5070032,80.686 87.0859975,80.5360015 87.596,80.236 C88.1060025,79.9359985 88.5049986,79.5130027 88.793,78.967 C89.0810014,78.4209973 89.225,77.7880036 89.225,77.068 C89.225,76.3479964 89.0810014,75.7120028 88.793,75.16 C88.5049986,74.6079972 88.1060025,74.1850015 87.596,73.891 C87.0859975,73.5969985 86.5070032,73.45 85.859,73.45 Z M95.111,68.68 L95.111,82 L93.473,82 L93.473,68.68 L95.111,68.68 Z M102.455,80.56 L102.455,82 L101.231,82 C100.222995,82 99.4700025,81.7600024 98.972,81.28 C98.4739975,80.7999976 98.225,79.9960056 98.225,78.868 L98.225,73.54 L96.749,73.54 L96.749,72.118 L98.225,72.118 L98.225,69.652 L99.881,69.652 L99.881,72.118 L102.437,72.118 L102.437,73.54 L99.881,73.54 L99.881,78.904 C99.881,79.5400032 99.9979988,79.9749988 100.232,80.209 C100.466001,80.4430012 100.870997,80.56 101.447,80.56 L102.455,80.56 Z M104.165,69.22 C104.165,68.9199985 104.266999,68.6770009 104.471,68.491 C104.675001,68.3049991 104.944998,68.212 105.281,68.212 C105.617002,68.212 105.886999,68.3049991 106.091,68.491 C106.295001,68.6770009 106.397,68.9199985 106.397,69.22 C106.397,69.5200015 106.295001,69.7629991 106.091,69.949 C105.886999,70.1350009 105.617002,70.228 105.281,70.228 C104.944998,70.228 104.675001,70.1350009 104.471,69.949 C104.266999,69.7629991 104.165,69.5200015 104.165,69.22 Z M106.091,72.118 L106.091,82 L104.453,82 L104.453,72.118 L106.091,72.118 Z M120.869,71.956 C122.021006,71.956 122.947996,72.3249963 123.65,73.063 C124.352004,73.8010037 124.703,74.865993 124.703,76.258 L124.703,82 L123.065,82 L123.065,76.402 C123.065,75.4299951 122.828002,74.6860026 122.354,74.17 C121.879998,73.6539974 121.229004,73.396 120.401,73.396 C119.536996,73.396 118.844003,73.6809971 118.322,74.251 C117.799997,74.8210028 117.539,75.6579945 117.539,76.762 L117.539,82 L115.901,82 L115.901,76.402 C115.901,75.4299951 115.661002,74.6860026 115.181,74.17 C114.700998,73.6539974 114.053004,73.396 113.237,73.396 C112.360996,73.396 111.662003,73.6809971 111.14,74.251 C110.617997,74.8210028 110.357,75.6579945 110.357,76.762 L110.357,82 L108.719,82 L108.719,72.118 L110.357,72.118 L110.357,74.368 C110.597001,73.5879961 111.025997,72.9910021 111.644,72.577 C112.262003,72.1629979 112.972996,71.956 113.777,71.956 C114.617004,71.956 115.345997,72.1689979 115.964,72.595 C116.582003,73.0210021 117.022999,73.6479959 117.287,74.476 C117.563001,73.671996 118.024997,73.0510022 118.673,72.613 C119.321003,72.1749978 120.052996,71.956 120.869,71.956 Z M136.331,76.51 C136.331,76.8580017 136.307,77.1579987 136.259,77.41 L128.357,77.41 C128.393,78.5380056 128.713997,79.3839972 129.32,79.948 C129.926003,80.5120028 130.666996,80.794 131.543,80.794 C132.335004,80.794 132.997997,80.593002 133.532,80.191 C134.066003,79.788998 134.392999,79.2520034 134.513,78.58 L136.259,78.58 C136.138999,79.2640034 135.872002,79.8759973 135.458,80.416 C135.043998,80.9560027 134.507003,81.3759985 133.847,81.676 C133.186997,81.9760015 132.443004,82.126 131.615,82.126 C130.666995,82.126 129.827004,81.922002 129.095,81.514 C128.362996,81.105998 127.790002,80.5210038 127.376,79.759 C126.961998,78.9969962 126.755,78.1000052 126.755,77.068 C126.755,76.0359948 126.961998,75.1360038 127.376,74.368 C127.790002,73.5999962 128.362996,73.012002 129.095,72.604 C129.827004,72.195998 130.666995,71.992 131.615,71.992 C132.575005,71.992 133.411996,72.195998 134.126,72.604 C134.840004,73.012002 135.385998,73.5579966 135.764,74.242 C136.142002,74.9260034 136.331,75.6819959 136.331,76.51 Z M134.675,76.618 C134.711,75.8859963 134.591001,75.2740025 134.315,74.782 C134.038999,74.2899975 133.661002,73.9240012 133.181,73.684 C132.700998,73.4439988 132.179003,73.324 131.615,73.324 C130.714996,73.324 129.959003,73.6029972 129.347,74.161 C128.734997,74.7190028 128.405,75.5379946 128.357,76.618 L134.675,76.618 Z M151.181,69.526 L151.181,82 L149.543,82 L149.543,72.046 L145.565,82 L144.107,82 L140.111,72.082 L140.111,82 L138.473,82 L138.473,69.526 L140.435,69.526 L144.863,80.002 L149.219,69.526 L151.181,69.526 Z M158.291,71.992 C159.239005,71.992 160.087996,72.195998 160.838,72.604 C161.588004,73.012002 162.175998,73.5999962 162.602,74.368 C163.028002,75.1360038 163.241,76.0359948 163.241,77.068 C163.241,78.1000052 163.028002,78.9969962 162.602,79.759 C162.175998,80.5210038 161.588004,81.105998 160.838,81.514 C160.087996,81.922002 159.239005,82.126 158.291,82.126 C157.342995,82.126 156.494004,81.922002 155.744,81.514 C154.993996,81.105998 154.403002,80.5210038 153.971,79.759 C153.538998,78.9969962 153.323,78.1000052 153.323,77.068 C153.323,76.0359948 153.538998,75.1360038 153.971,74.368 C154.403002,73.5999962 154.993996,73.012002 155.744,72.604 C156.494004,72.195998 157.342995,71.992 158.291,71.992 Z M158.291,73.432 C157.702997,73.432 157.160002,73.5639987 156.662,73.828 C156.163998,74.0920013 155.762002,74.4969973 155.456,75.043 C155.149998,75.5890027 154.997,76.263996 154.997,77.068 C154.997,77.860004 155.149998,78.5289973 155.456,79.075 C155.762002,79.6210027 156.163998,80.0259987 156.662,80.29 C157.160002,80.5540013 157.702997,80.686 158.291,80.686 C158.879003,80.686 159.421998,80.5540013 159.92,80.29 C160.418002,80.0259987 160.819998,79.6210027 161.126,79.075 C161.432002,78.5289973 161.585,77.860004 161.585,77.068 C161.585,76.263996 161.432002,75.5890027 161.126,75.043 C160.819998,74.4969973 160.418002,74.0920013 159.92,73.828 C159.421998,73.5639987 158.879003,73.432 158.291,73.432 Z M169.433,71.992 C170.393005,71.992 171.205997,72.2319976 171.872,72.712 C172.538003,73.1920024 173.002999,73.833996 173.267,74.638 L173.267,68.68 L174.905,68.68 L174.905,82 L173.267,82 L173.267,79.48 C173.002999,80.284004 172.538003,80.9259976 171.872,81.406 C171.205997,81.8860024 170.393005,82.126 169.433,82.126 C168.556996,82.126 167.777003,81.922002 167.093,81.514 C166.408997,81.105998 165.872002,80.5210038 165.482,79.759 C165.091998,78.9969962 164.897,78.1000052 164.897,77.068 C164.897,76.0359948 165.091998,75.1360038 165.482,74.368 C165.872002,73.5999962 166.408997,73.012002 167.093,72.604 C167.777003,72.195998 168.556996,71.992 169.433,71.992 Z M169.901,73.45 C168.892995,73.45 168.086003,73.7709968 167.48,74.413 C166.873997,75.0550032 166.571,75.9399944 166.571,77.068 C166.571,78.1960056 166.873997,79.0809968 167.48,79.723 C168.086003,80.3650032 168.892995,80.686 169.901,80.686 C170.549003,80.686 171.127997,80.5360015 171.638,80.236 C172.148003,79.9359985 172.546999,79.5130027 172.835,78.967 C173.123001,78.4209973 173.267,77.7880036 173.267,77.068 C173.267,76.3479964 173.123001,75.7120028 172.835,75.16 C172.546999,74.6079972 172.148003,74.1850015 171.638,73.891 C171.127997,73.5969985 170.549003,73.45 169.901,73.45 Z M186.605,76.51 C186.605,76.8580017 186.581,77.1579987 186.533,77.41 L178.631,77.41 C178.667,78.5380056 178.987997,79.3839972 179.594,79.948 C180.200003,80.5120028 180.940996,80.794 181.817,80.794 C182.609004,80.794 183.271997,80.593002 183.806,80.191 C184.340003,79.788998 184.666999,79.2520034 184.787,78.58 L186.533,78.58 C186.412999,79.2640034 186.146002,79.8759973 185.732,80.416 C185.317998,80.9560027 184.781003,81.3759985 184.121,81.676 C183.460997,81.9760015 182.717004,82.126 181.889,82.126 C180.940995,82.126 180.101004,81.922002 179.369,81.514 C178.636996,81.105998 178.064002,80.5210038 177.65,79.759 C177.235998,78.9969962 177.029,78.1000052 177.029,77.068 C177.029,76.0359948 177.235998,75.1360038 177.65,74.368 C178.064002,73.5999962 178.636996,73.012002 179.369,72.604 C180.101004,72.195998 180.940995,71.992 181.889,71.992 C182.849005,71.992 183.685996,72.195998 184.4,72.604 C185.114004,73.012002 185.659998,73.5579966 186.038,74.242 C186.416002,74.9260034 186.605,75.6819959 186.605,76.51 Z M184.949,76.618 C184.985,75.8859963 184.865001,75.2740025 184.589,74.782 C184.312999,74.2899975 183.935002,73.9240012 183.455,73.684 C182.974998,73.4439988 182.453003,73.324 181.889,73.324 C180.988995,73.324 180.233003,73.6029972 179.621,74.161 C179.008997,74.7190028 178.679,75.5379946 178.631,76.618 L184.949,76.618 Z M190.385,68.68 L190.385,82 L188.747,82 L188.747,68.68 L190.385,68.68 Z" id="ModelRealtimeModel" fill="#000000"></path>
        </g>
        <g id="Group-Copy-2" transform="translate(400.000000, 88.000000)" fill-rule="nonzero">
            <path d="M2,2 L2,113 L248,113 L248,2 L2,2 Z M0,0 L250,0 L250,115 L0,115 L0,0 Z" id="Rectangle" fill="#DFDFDF"></path>
            <path d="M84.167,52.93 L86.715,55.998 C85.181,57.454 83.257,58.338 80.735,58.338 C74.755,58.338 71.167,54.282 71.167,49.03 C71.167,43.83 74.911,39.67 80.657,39.67 C83.387,39.67 85.311,40.554 86.741,41.802 L84.167,45.078 C83.517,44.48 82.321,43.726 80.709,43.726 C77.511,43.726 75.717,46.066 75.717,49.004 C75.717,51.968 77.719,54.282 80.735,54.282 C82.243,54.282 83.387,53.606 84.167,52.93 Z M90.719,51.058 C90.719,53.008 92.019,54.464 93.891,54.464 C95.867,54.464 97.037,52.982 97.037,51.058 C97.037,49.108 95.763,47.626 93.865,47.626 C91.889,47.626 90.719,49.108 90.719,51.058 Z M86.559,51.084 C86.559,47.028 89.575,43.856 93.839,43.856 C98.389,43.856 101.197,46.976 101.197,51.006 C101.197,55.062 98.285,58.234 93.865,58.234 C89.393,58.234 86.559,55.114 86.559,51.084 Z M109.595,58 L109.595,49.342 C109.595,48.328 109.101,47.652 108.113,47.652 C107.151,47.652 106.631,48.302 106.631,49.316 L106.631,58 L102.445,58 L102.445,44.09 L106.631,44.09 L106.631,44.974 C106.943,44.688 107.749,43.934 109.439,43.934 C112.715,43.934 113.781,46.17 113.781,48.848 L113.781,58 L109.595,58 Z M120.047,41.88 L120.047,44.09 L121.893,44.09 L121.893,47.6 L120.047,47.6 L120.047,53.138 C120.047,54.074 120.437,54.386 121.191,54.386 L121.893,54.386 L121.893,57.896 C121.893,57.896 121.243,58.156 119.787,58.156 C117.135,58.156 115.861,56.778 115.861,54.386 L115.861,47.6 L114.639,47.6 L114.639,44.09 L115.861,44.09 L115.861,41.88 L120.047,41.88 Z M129.953,44.012 L129.953,48.406 L128.913,48.406 C127.795,48.406 127.509,48.848 127.509,49.706 L127.509,58 L123.323,58 L123.323,44.09 L127.509,44.09 L127.509,45.052 C128.029,44.376 128.705,44.012 129.953,44.012 Z M134.503,51.058 C134.503,53.008 135.803,54.464 137.675,54.464 C139.651,54.464 140.821,52.982 140.821,51.058 C140.821,49.108 139.547,47.626 137.649,47.626 C135.673,47.626 134.503,49.108 134.503,51.058 Z M130.343,51.084 C130.343,47.028 133.359,43.856 137.623,43.856 C142.173,43.856 144.981,46.976 144.981,51.006 C144.981,55.062 142.069,58.234 137.649,58.234 C133.177,58.234 130.343,55.114 130.343,51.084 Z M150.415,38.994 L150.415,58 L146.229,58 L146.229,38.994 L150.415,38.994 Z M156.265,38.994 L156.265,58 L152.079,58 L152.079,38.994 L156.265,38.994 Z M171.137,52.41 L161.855,52.41 C162.037,53.736 163.077,54.542 164.689,54.542 C166.171,54.542 167.029,53.684 167.523,52.904 L170.721,54.776 C169.941,56.388 168.121,58.234 164.663,58.234 C160.425,58.234 157.513,55.556 157.513,51.11 C157.513,46.95 160.295,43.856 164.351,43.856 C168.615,43.856 171.189,46.638 171.189,50.798 C171.189,51.214 171.189,51.708 171.137,52.41 Z M164.351,47.34 C162.895,47.34 162.063,48.354 161.959,49.472 L166.847,49.472 C166.743,48.328 165.859,47.34 164.351,47.34 Z M178.989,44.012 L178.989,48.406 L177.949,48.406 C176.831,48.406 176.545,48.848 176.545,49.706 L176.545,58 L172.359,58 L172.359,44.09 L176.545,44.09 L176.545,45.052 C177.065,44.376 177.741,44.012 178.989,44.012 Z M39.302,86 L35.99,80.816 L34.208,80.816 L34.208,86 L32.57,86 L32.57,73.31 L36.746,73.31 C38.1860072,73.31 39.2659964,73.6549965 39.986,74.345 C40.7060036,75.0350035 41.066,75.9499943 41.066,77.09 C41.066,78.1220052 40.7780029,78.9529969 40.202,79.583 C39.6259971,80.2130031 38.7920055,80.6059992 37.7,80.762 L41.156,86 L39.302,86 Z M34.208,79.628 L36.602,79.628 C38.4620093,79.628 39.392,78.8120082 39.392,77.18 C39.392,75.5479918 38.4620093,74.732 36.602,74.732 L34.208,74.732 L34.208,79.628 Z M52.154,80.51 C52.154,80.8580017 52.1300002,81.1579987 52.082,81.41 L44.18,81.41 C44.2160002,82.5380056 44.536997,83.3839972 45.143,83.948 C45.749003,84.5120028 46.4899956,84.794 47.366,84.794 C48.158004,84.794 48.8209973,84.593002 49.355,84.191 C49.8890027,83.788998 50.2159994,83.2520034 50.336,82.58 L52.082,82.58 C51.9619994,83.2640034 51.6950021,83.8759973 51.281,84.416 C50.8669979,84.9560027 50.3300033,85.3759985 49.67,85.676 C49.0099967,85.9760015 48.2660041,86.126 47.438,86.126 C46.4899953,86.126 45.6500037,85.922002 44.918,85.514 C44.1859963,85.105998 43.6130021,84.5210038 43.199,83.759 C42.7849979,82.9969962 42.578,82.1000052 42.578,81.068 C42.578,80.0359948 42.7849979,79.1360038 43.199,78.368 C43.6130021,77.5999962 44.1859963,77.012002 44.918,76.604 C45.6500037,76.195998 46.4899953,75.992 47.438,75.992 C48.3980048,75.992 49.2349964,76.195998 49.949,76.604 C50.6630036,77.012002 51.2089981,77.5579966 51.587,78.242 C51.9650019,78.9260034 52.154,79.6819959 52.154,80.51 Z M50.498,80.618 C50.5340002,79.8859963 50.4140014,79.2740025 50.138,78.782 C49.8619986,78.2899975 49.4840024,77.9240012 49.004,77.684 C48.5239976,77.4439988 48.0020028,77.324 47.438,77.324 C46.5379955,77.324 45.7820031,77.6029972 45.17,78.161 C44.5579969,78.7190028 44.2280002,79.5379946 44.18,80.618 L50.498,80.618 Z M58.346,75.992 C59.3060048,75.992 60.1189967,76.2319976 60.785,76.712 C61.4510033,77.1920024 61.9159987,77.833996 62.18,78.638 L62.18,76.118 L63.818,76.118 L63.818,86 L62.18,86 L62.18,83.48 C61.9159987,84.284004 61.4510033,84.9259976 60.785,85.406 C60.1189967,85.8860024 59.3060048,86.126 58.346,86.126 C57.4699956,86.126 56.6900034,85.922002 56.006,85.514 C55.3219966,85.105998 54.785002,84.5210038 54.395,83.759 C54.0049981,82.9969962 53.81,82.1000052 53.81,81.068 C53.81,80.0359948 54.0049981,79.1360038 54.395,78.368 C54.785002,77.5999962 55.3219966,77.012002 56.006,76.604 C56.6900034,76.195998 57.4699956,75.992 58.346,75.992 Z M58.814,77.45 C57.805995,77.45 56.999003,77.7709968 56.393,78.413 C55.786997,79.0550032 55.484,79.9399944 55.484,81.068 C55.484,82.1960056 55.786997,83.0809968 56.393,83.723 C56.999003,84.3650032 57.805995,84.686 58.814,84.686 C59.4620032,84.686 60.0409975,84.5360015 60.551,84.236 C61.0610025,83.9359985 61.4599986,83.5130027 61.748,82.967 C62.0360014,82.4209973 62.18,81.7880036 62.18,81.068 C62.18,80.3479964 62.0360014,79.7120028 61.748,79.16 C61.4599986,78.6079972 61.0610025,78.1850015 60.551,77.891 C60.0409975,77.5969985 59.4620032,77.45 58.814,77.45 Z M68.066,72.68 L68.066,86 L66.428,86 L66.428,72.68 L68.066,72.68 Z M75.41,84.56 L75.41,86 L74.186,86 C73.177995,86 72.4250025,85.7600024 71.927,85.28 C71.4289975,84.7999976 71.18,83.9960056 71.18,82.868 L71.18,77.54 L69.704,77.54 L69.704,76.118 L71.18,76.118 L71.18,73.652 L72.836,73.652 L72.836,76.118 L75.392,76.118 L75.392,77.54 L72.836,77.54 L72.836,82.904 C72.836,83.5400032 72.9529988,83.9749988 73.187,84.209 C73.4210012,84.4430012 73.8259971,84.56 74.402,84.56 L75.41,84.56 Z M77.12,73.22 C77.12,72.9199985 77.221999,72.6770009 77.426,72.491 C77.630001,72.3049991 77.8999983,72.212 78.236,72.212 C78.5720017,72.212 78.841999,72.3049991 79.046,72.491 C79.250001,72.6770009 79.352,72.9199985 79.352,73.22 C79.352,73.5200015 79.250001,73.7629991 79.046,73.949 C78.841999,74.1350009 78.5720017,74.228 78.236,74.228 C77.8999983,74.228 77.630001,74.1350009 77.426,73.949 C77.221999,73.7629991 77.12,73.5200015 77.12,73.22 Z M79.046,76.118 L79.046,86 L77.408,86 L77.408,76.118 L79.046,76.118 Z M93.824,75.956 C94.9760058,75.956 95.9029965,76.3249963 96.605,77.063 C97.3070035,77.8010037 97.658,78.865993 97.658,80.258 L97.658,86 L96.02,86 L96.02,80.402 C96.02,79.4299951 95.7830024,78.6860026 95.309,78.17 C94.8349976,77.6539974 94.1840041,77.396 93.356,77.396 C92.4919957,77.396 91.7990026,77.6809971 91.277,78.251 C90.7549974,78.8210028 90.494,79.6579945 90.494,80.762 L90.494,86 L88.856,86 L88.856,80.402 C88.856,79.4299951 88.6160024,78.6860026 88.136,78.17 C87.6559976,77.6539974 87.0080041,77.396 86.192,77.396 C85.3159956,77.396 84.6170026,77.6809971 84.095,78.251 C83.5729974,78.8210028 83.312,79.6579945 83.312,80.762 L83.312,86 L81.674,86 L81.674,76.118 L83.312,76.118 L83.312,78.368 C83.5520012,77.5879961 83.9809969,76.9910021 84.599,76.577 C85.2170031,76.1629979 85.927996,75.956 86.732,75.956 C87.5720042,75.956 88.3009969,76.1689979 88.919,76.595 C89.5370031,77.0210021 89.9779987,77.6479959 90.242,78.476 C90.5180014,77.671996 90.9799968,77.0510022 91.628,76.613 C92.2760032,76.1749978 93.0079959,75.956 93.824,75.956 Z M109.286,80.51 C109.286,80.8580017 109.262,81.1579987 109.214,81.41 L101.312,81.41 C101.348,82.5380056 101.668997,83.3839972 102.275,83.948 C102.881003,84.5120028 103.621996,84.794 104.498,84.794 C105.290004,84.794 105.952997,84.593002 106.487,84.191 C107.021003,83.788998 107.347999,83.2520034 107.468,82.58 L109.214,82.58 C109.093999,83.2640034 108.827002,83.8759973 108.413,84.416 C107.998998,84.9560027 107.462003,85.3759985 106.802,85.676 C106.141997,85.9760015 105.398004,86.126 104.57,86.126 C103.621995,86.126 102.782004,85.922002 102.05,85.514 C101.317996,85.105998 100.745002,84.5210038 100.331,83.759 C99.9169979,82.9969962 99.71,82.1000052 99.71,81.068 C99.71,80.0359948 99.9169979,79.1360038 100.331,78.368 C100.745002,77.5999962 101.317996,77.012002 102.05,76.604 C102.782004,76.195998 103.621995,75.992 104.57,75.992 C105.530005,75.992 106.366996,76.195998 107.081,76.604 C107.795004,77.012002 108.340998,77.5579966 108.719,78.242 C109.097002,78.9260034 109.286,79.6819959 109.286,80.51 Z M107.63,80.618 C107.666,79.8859963 107.546001,79.2740025 107.27,78.782 C106.993999,78.2899975 106.616002,77.9240012 106.136,77.684 C105.655998,77.4439988 105.134003,77.324 104.57,77.324 C103.669995,77.324 102.914003,77.6029972 102.302,78.161 C101.689997,78.7190028 101.36,79.5379946 101.312,80.618 L107.63,80.618 Z M117.044,73.184 C118.592008,73.184 119.869995,73.5649962 120.878,74.327 C121.886005,75.0890038 122.581998,76.1299934 122.966,77.45 L121.238,77.45 C120.913998,76.6099958 120.392004,75.9410025 119.672,75.443 C118.951996,74.9449975 118.070005,74.696 117.026,74.696 C116.197996,74.696 115.457003,74.896998 114.803,75.299 C114.148997,75.701002 113.633002,76.2769962 113.255,77.027 C112.876998,77.7770038 112.688,78.655995 112.688,79.664 C112.688,80.660005 112.876998,81.5299963 113.255,82.274 C113.633002,83.0180037 114.148997,83.590998 114.803,83.993 C115.457003,84.395002 116.197996,84.596 117.026,84.596 C118.070005,84.596 118.951996,84.3470025 119.672,83.849 C120.392004,83.3509975 120.913998,82.6820042 121.238,81.842 L122.966,81.842 C122.581998,83.1620066 121.886005,84.2029962 120.878,84.965 C119.869995,85.7270038 118.592008,86.108 117.044,86.108 C115.855994,86.108 114.806005,85.8350027 113.894,85.289 C112.981995,84.7429973 112.271003,83.9810049 111.761,83.003 C111.250997,82.0249951 110.996,80.9120062 110.996,79.664 C110.996,78.4039937 111.250997,77.2820049 111.761,76.298 C112.271003,75.3139951 112.981995,74.5490027 113.894,74.003 C114.806005,73.4569973 115.855994,73.184 117.044,73.184 Z M129.644,75.992 C130.592005,75.992 131.440996,76.195998 132.191,76.604 C132.941004,77.012002 133.528998,77.5999962 133.955,78.368 C134.381002,79.1360038 134.594,80.0359948 134.594,81.068 C134.594,82.1000052 134.381002,82.9969962 133.955,83.759 C133.528998,84.5210038 132.941004,85.105998 132.191,85.514 C131.440996,85.922002 130.592005,86.126 129.644,86.126 C128.695995,86.126 127.847004,85.922002 127.097,85.514 C126.346996,85.105998 125.756002,84.5210038 125.324,83.759 C124.891998,82.9969962 124.676,82.1000052 124.676,81.068 C124.676,80.0359948 124.891998,79.1360038 125.324,78.368 C125.756002,77.5999962 126.346996,77.012002 127.097,76.604 C127.847004,76.195998 128.695995,75.992 129.644,75.992 Z M129.644,77.432 C129.055997,77.432 128.513002,77.5639987 128.015,77.828 C127.516998,78.0920013 127.115002,78.4969973 126.809,79.043 C126.502998,79.5890027 126.35,80.263996 126.35,81.068 C126.35,81.860004 126.502998,82.5289973 126.809,83.075 C127.115002,83.6210027 127.516998,84.0259987 128.015,84.29 C128.513002,84.5540013 129.055997,84.686 129.644,84.686 C130.232003,84.686 130.774998,84.5540013 131.273,84.29 C131.771002,84.0259987 132.172998,83.6210027 132.479,83.075 C132.785002,82.5289973 132.938,81.860004 132.938,81.068 C132.938,80.263996 132.785002,79.5890027 132.479,79.043 C132.172998,78.4969973 131.771002,78.0920013 131.273,77.828 C130.774998,77.5639987 130.232003,77.432 129.644,77.432 Z M148.886,75.956 C150.038006,75.956 150.964996,76.3249963 151.667,77.063 C152.369004,77.8010037 152.72,78.865993 152.72,80.258 L152.72,86 L151.082,86 L151.082,80.402 C151.082,79.4299951 150.845002,78.6860026 150.371,78.17 C149.896998,77.6539974 149.246004,77.396 148.418,77.396 C147.553996,77.396 146.861003,77.6809971 146.339,78.251 C145.816997,78.8210028 145.556,79.6579945 145.556,80.762 L145.556,86 L143.918,86 L143.918,80.402 C143.918,79.4299951 143.678002,78.6860026 143.198,78.17 C142.717998,77.6539974 142.070004,77.396 141.254,77.396 C140.377996,77.396 139.679003,77.6809971 139.157,78.251 C138.634997,78.8210028 138.374,79.6579945 138.374,80.762 L138.374,86 L136.736,86 L136.736,76.118 L138.374,76.118 L138.374,78.368 C138.614001,77.5879961 139.042997,76.9910021 139.661,76.577 C140.279003,76.1629979 140.989996,75.956 141.794,75.956 C142.634004,75.956 143.362997,76.1689979 143.981,76.595 C144.599003,77.0210021 145.039999,77.6479959 145.304,78.476 C145.580001,77.671996 146.041997,77.0510022 146.69,76.613 C147.338003,76.1749978 148.069996,75.956 148.886,75.956 Z M160.712,75.992 C161.588004,75.992 162.367997,76.195998 163.052,76.604 C163.736003,77.012002 164.272998,77.5999962 164.663,78.368 C165.053002,79.1360038 165.248,80.0359948 165.248,81.068 C165.248,82.1000052 165.053002,82.9969962 164.663,83.759 C164.272998,84.5210038 163.736003,85.105998 163.052,85.514 C162.367997,85.922002 161.588004,86.126 160.712,86.126 C159.751995,86.126 158.939003,85.8830024 158.273,85.397 C157.606997,84.9109976 157.148001,84.272004 156.896,83.48 L156.896,90.68 L155.258,90.68 L155.258,76.118 L156.896,76.118 L156.896,78.638 C157.148001,77.845996 157.606997,77.2070024 158.273,76.721 C158.939003,76.2349976 159.751995,75.992 160.712,75.992 Z M160.244,77.45 C159.607997,77.45 159.032003,77.5969985 158.516,77.891 C157.999997,78.1850015 157.598001,78.6079972 157.31,79.16 C157.021999,79.7120028 156.878,80.3479964 156.878,81.068 C156.878,81.7880036 157.021999,82.4209973 157.31,82.967 C157.598001,83.5130027 157.999997,83.9359985 158.516,84.236 C159.032003,84.5360015 159.607997,84.686 160.244,84.686 C161.264005,84.686 162.076997,84.3650032 162.683,83.723 C163.289003,83.0809968 163.592,82.1960056 163.592,81.068 C163.592,79.9399944 163.289003,79.0550032 162.683,78.413 C162.076997,77.7709968 161.264005,77.45 160.244,77.45 Z M171.872,75.992 C172.820005,75.992 173.668996,76.195998 174.419,76.604 C175.169004,77.012002 175.756998,77.5999962 176.183,78.368 C176.609002,79.1360038 176.822,80.0359948 176.822,81.068 C176.822,82.1000052 176.609002,82.9969962 176.183,83.759 C175.756998,84.5210038 175.169004,85.105998 174.419,85.514 C173.668996,85.922002 172.820005,86.126 171.872,86.126 C170.923995,86.126 170.075004,85.922002 169.325,85.514 C168.574996,85.105998 167.984002,84.5210038 167.552,83.759 C167.119998,82.9969962 166.904,82.1000052 166.904,81.068 C166.904,80.0359948 167.119998,79.1360038 167.552,78.368 C167.984002,77.5999962 168.574996,77.012002 169.325,76.604 C170.075004,76.195998 170.923995,75.992 171.872,75.992 Z M171.872,77.432 C171.283997,77.432 170.741002,77.5639987 170.243,77.828 C169.744998,78.0920013 169.343002,78.4969973 169.037,79.043 C168.730998,79.5890027 168.578,80.263996 168.578,81.068 C168.578,81.860004 168.730998,82.5289973 169.037,83.075 C169.343002,83.6210027 169.744998,84.0259987 170.243,84.29 C170.741002,84.5540013 171.283997,84.686 171.872,84.686 C172.460003,84.686 173.002998,84.5540013 173.501,84.29 C173.999002,84.0259987 174.400998,83.6210027 174.707,83.075 C175.013002,82.5289973 175.166,81.860004 175.166,81.068 C175.166,80.263996 175.013002,79.5890027 174.707,79.043 C174.400998,78.4969973 173.999002,78.0920013 173.501,77.828 C173.002998,77.5639987 172.460003,77.432 171.872,77.432 Z M184.166,75.956 C185.318006,75.956 186.247996,76.3249963 186.956,77.063 C187.664004,77.8010037 188.018,78.865993 188.018,80.258 L188.018,86 L186.38,86 L186.38,80.402 C186.38,79.4179951 186.128003,78.6620026 185.624,78.134 C185.119997,77.6059974 184.436004,77.342 183.572,77.342 C182.671996,77.342 181.952003,77.6329971 181.412,78.215 C180.871997,78.7970029 180.602,79.6459944 180.602,80.762 L180.602,86 L178.964,86 L178.964,76.118 L180.602,76.118 L180.602,78.458 C180.854001,77.653996 181.300997,77.0360022 181.943,76.604 C182.585003,76.1719978 183.325996,75.956 184.166,75.956 Z M199.628,80.51 C199.628,80.8580017 199.604,81.1579987 199.556,81.41 L191.654,81.41 C191.69,82.5380056 192.010997,83.3839972 192.617,83.948 C193.223003,84.5120028 193.963996,84.794 194.84,84.794 C195.632004,84.794 196.294997,84.593002 196.829,84.191 C197.363003,83.788998 197.689999,83.2520034 197.81,82.58 L199.556,82.58 C199.435999,83.2640034 199.169002,83.8759973 198.755,84.416 C198.340998,84.9560027 197.804003,85.3759985 197.144,85.676 C196.483997,85.9760015 195.740004,86.126 194.912,86.126 C193.963995,86.126 193.124004,85.922002 192.392,85.514 C191.659996,85.105998 191.087002,84.5210038 190.673,83.759 C190.258998,82.9969962 190.052,82.1000052 190.052,81.068 C190.052,80.0359948 190.258998,79.1360038 190.673,78.368 C191.087002,77.5999962 191.659996,77.012002 192.392,76.604 C193.124004,76.195998 193.963995,75.992 194.912,75.992 C195.872005,75.992 196.708996,76.195998 197.423,76.604 C198.137004,77.012002 198.682998,77.5579966 199.061,78.242 C199.439002,78.9260034 199.628,79.6819959 199.628,80.51 Z M197.972,80.618 C198.008,79.8859963 197.888001,79.2740025 197.612,78.782 C197.335999,78.2899975 196.958002,77.9240012 196.478,77.684 C195.997998,77.4439988 195.476003,77.324 194.912,77.324 C194.011996,77.324 193.256003,77.6029972 192.644,78.161 C192.031997,78.7190028 191.702,79.5379946 191.654,80.618 L197.972,80.618 Z M206.972,75.956 C208.124006,75.956 209.053996,76.3249963 209.762,77.063 C210.470004,77.8010037 210.824,78.865993 210.824,80.258 L210.824,86 L209.186,86 L209.186,80.402 C209.186,79.4179951 208.934003,78.6620026 208.43,78.134 C207.925997,77.6059974 207.242004,77.342 206.378,77.342 C205.477996,77.342 204.758003,77.6329971 204.218,78.215 C203.677997,78.7970029 203.408,79.6459944 203.408,80.762 L203.408,86 L201.77,86 L201.77,76.118 L203.408,76.118 L203.408,78.458 C203.660001,77.653996 204.106997,77.0360022 204.749,76.604 C205.391003,76.1719978 206.131996,75.956 206.972,75.956 Z M218.06,84.56 L218.06,86 L216.836,86 C215.827995,86 215.075002,85.7600024 214.577,85.28 C214.078998,84.7999976 213.83,83.9960056 213.83,82.868 L213.83,77.54 L212.354,77.54 L212.354,76.118 L213.83,76.118 L213.83,73.652 L215.486,73.652 L215.486,76.118 L218.042,76.118 L218.042,77.54 L215.486,77.54 L215.486,82.904 C215.486,83.5400032 215.602999,83.9749988 215.837,84.209 C216.071001,84.4430012 216.475997,84.56 217.052,84.56 L218.06,84.56 Z" id="ControllerRealtimeComponent" fill="#000000"></path>
        </g>
        <path d="M560.5,256.222222 L560.5,383.5 L718,383.5 C718.552285,383.5 719,383.947715 719,384.5 C719,385.052285 718.552285,385.5 718,385.5 L559.5,385.5 C558.947715,385.5 558.5,385.052285 558.5,384.5 L558.5,256.222222 L553.335115,256.222222 C552.873894,256.222222 552.5,255.848328 552.5,255.387107 C552.5,255.257459 552.530185,255.129592 552.588165,255.013632 L558.752959,242.684046 C558.959223,242.271517 559.460854,242.104306 559.873383,242.310571 C560.035001,242.391379 560.16605,242.522428 560.246858,242.684046 L566.411652,255.013632 C566.617916,255.426161 566.450706,255.927792 566.038177,256.134057 C565.922216,256.192037 565.794349,256.222222 565.664702,256.222222 L560.5,256.222222 L560.5,256.222222 Z" id="Path-4" fill="#000000" fill-rule="nonzero"></path>
        <path d="M477.277778,385.5 L332,385.5 C331.447715,385.5 331,385.052285 331,384.5 L331,243 C331,242.447715 331.447715,242 332,242 C332.552285,242 333,242.447715 333,243 L333,383.5 L477.277778,383.5 L477.277778,378.335298 C477.277778,378.205651 477.307963,378.077784 477.365943,377.961823 C477.572208,377.549294 478.073839,377.382084 478.486368,377.588348 L490.815954,383.753142 C490.977572,383.83395 491.108621,383.964999 491.189429,384.126617 C491.395694,384.539146 491.228483,385.040777 490.815954,385.247041 L478.486368,391.411835 C478.370408,391.469815 478.242541,391.5 478.112893,391.5 C477.651672,391.5 477.277778,391.126106 477.277778,390.664885 L477.277778,385.5 L477.277778,385.5 Z" id="Path-4-Copy" fill="#000000" fill-rule="nonzero" transform="translate(411.138889, 316.750000) scale(-1, 1) translate(-411.138889, -316.750000) "></path>
        <path d="M622.88,367 L621.06,367 L613.74,355.86 L613.74,367 L611.92,367 L611.92,352.9 L613.74,352.9 L621.06,364.06 L621.06,352.9 L622.88,352.9 L622.88,367 Z M630.78,355.88 C631.833339,355.88 632.776663,356.106664 633.61,356.56 C634.443337,357.013336 635.096664,357.666662 635.57,358.52 C636.043336,359.373338 636.28,360.373328 636.28,361.52 C636.28,362.666672 636.043336,363.663329 635.57,364.51 C635.096664,365.356671 634.443337,366.006664 633.61,366.46 C632.776663,366.913336 631.833339,367.14 630.78,367.14 C629.726661,367.14 628.783338,366.913336 627.95,366.46 C627.116662,366.006664 626.460002,365.356671 625.98,364.51 C625.499998,363.663329 625.26,362.666672 625.26,361.52 C625.26,360.373328 625.499998,359.373338 625.98,358.52 C626.460002,357.666662 627.116662,357.013336 627.95,356.56 C628.783338,356.106664 629.726661,355.88 630.78,355.88 Z M630.78,357.48 C630.126663,357.48 629.523336,357.626665 628.97,357.92 C628.416664,358.213335 627.970002,358.66333 627.63,359.27 C627.289998,359.87667 627.12,360.626662 627.12,361.52 C627.12,362.400004 627.289998,363.14333 627.63,363.75 C627.970002,364.35667 628.416664,364.806665 628.97,365.1 C629.523336,365.393335 630.126663,365.54 630.78,365.54 C631.433337,365.54 632.036664,365.393335 632.59,365.1 C633.143336,364.806665 633.589998,364.35667 633.93,363.75 C634.270002,363.14333 634.44,362.400004 634.44,361.52 C634.44,360.626662 634.270002,359.87667 633.93,359.27 C633.589998,358.66333 633.143336,358.213335 632.59,357.92 C632.036664,357.626665 631.433337,357.48 630.78,357.48 Z M643.9,365.4 L643.9,367 L642.54,367 C641.419994,367 640.583336,366.733336 640.03,366.2 C639.476664,365.666664 639.2,364.77334 639.2,363.52 L639.2,357.6 L637.56,357.6 L637.56,356.02 L639.2,356.02 L639.2,353.28 L641.04,353.28 L641.04,356.02 L643.88,356.02 L643.88,357.6 L641.04,357.6 L641.04,363.56 C641.04,364.26667 641.169999,364.749999 641.43,365.01 C641.690001,365.270001 642.139997,365.4 642.78,365.4 L643.9,365.4 Z M645.8,352.8 C645.8,352.466665 645.913332,352.196668 646.14,351.99 C646.366668,351.783332 646.666665,351.68 647.04,351.68 C647.413335,351.68 647.713332,351.783332 647.94,351.99 C648.166668,352.196668 648.28,352.466665 648.28,352.8 C648.28,353.133335 648.166668,353.403332 647.94,353.61 C647.713332,353.816668 647.413335,353.92 647.04,353.92 C646.666665,353.92 646.366668,353.816668 646.14,353.61 C645.913332,353.403332 645.8,353.133335 645.8,352.8 Z M647.94,356.02 L647.94,367 L646.12,367 L646.12,356.02 L647.94,356.02 Z M655.72,353.42 C654.746662,353.406667 654.070002,353.573332 653.69,353.92 C653.309998,354.266668 653.12,354.866662 653.12,355.72 L653.12,356.02 L655.72,356.02 L655.72,357.62 L653.12,357.62 L653.12,367 L651.3,367 L651.3,357.62 L649.72,357.62 L649.72,356.02 L651.3,356.02 L651.3,355.58 C651.3,352.95332 652.773319,351.699999 655.72,351.82 L655.72,353.42 Z M658.46,356.02 L662.02,364.66 L665.32,356.02 L667.34,356.02 L660.82,372.2 L658.76,372.2 L661.04,366.82 L656.42,356.02 L658.46,356.02 Z" id="Notify" fill="#000000" fill-rule="nonzero"></path>
        <path d="M377.38,352.9 L377.38,361.36 C377.38,362.746674 377.686664,363.769997 378.3,364.43 C378.913336,365.090003 379.759995,365.42 380.84,365.42 C381.906672,365.42 382.739997,365.08667 383.34,364.42 C383.940003,363.75333 384.24,362.73334 384.24,361.36 L384.24,352.9 L386.06,352.9 L386.06,361.36 C386.06,363.28001 385.583338,364.723328 384.63,365.69 C383.676662,366.656672 382.400008,367.14 380.8,367.14 C379.213325,367.14 377.943338,366.656672 376.99,365.69 C376.036662,364.723328 375.56,363.28001 375.56,361.36 L375.56,352.9 L377.38,352.9 Z M394.94,355.88 C395.913338,355.88 396.779996,356.106664 397.54,356.56 C398.300004,357.013336 398.896664,357.666662 399.33,358.52 C399.763335,359.373338 399.98,360.373328 399.98,361.52 C399.98,362.666672 399.763335,363.663329 399.33,364.51 C398.896664,365.356671 398.300004,366.006664 397.54,366.46 C396.779996,366.913336 395.913338,367.14 394.94,367.14 C393.873328,367.14 392.970004,366.870003 392.23,366.33 C391.489996,365.789997 390.980001,365.080004 390.7,364.2 L390.7,372.2 L388.88,372.2 L388.88,356.02 L390.7,356.02 L390.7,358.82 C390.980001,357.939996 391.489996,357.230003 392.23,356.69 C392.970004,356.149997 393.873328,355.88 394.94,355.88 Z M394.42,357.5 C393.71333,357.5 393.073336,357.663332 392.5,357.99 C391.926664,358.316668 391.480002,358.786664 391.16,359.4 C390.839998,360.013336 390.68,360.719996 390.68,361.52 C390.68,362.320004 390.839998,363.02333 391.16,363.63 C391.480002,364.23667 391.926664,364.706665 392.5,365.04 C393.073336,365.373335 393.71333,365.54 394.42,365.54 C395.553339,365.54 396.456663,365.183337 397.13,364.47 C397.803337,363.756663 398.14,362.77334 398.14,361.52 C398.14,360.26666 397.803337,359.283337 397.13,358.57 C396.456663,357.856663 395.553339,357.5 394.42,357.5 Z M406.86,355.88 C407.926672,355.88 408.829996,356.146664 409.57,356.68 C410.310004,357.213336 410.826665,357.926662 411.12,358.82 L411.12,352.2 L412.94,352.2 L412.94,367 L411.12,367 L411.12,364.2 C410.826665,365.093338 410.310004,365.806664 409.57,366.34 C408.829996,366.873336 407.926672,367.14 406.86,367.14 C405.886662,367.14 405.020004,366.913336 404.26,366.46 C403.499996,366.006664 402.903336,365.356671 402.47,364.51 C402.036665,363.663329 401.82,362.666672 401.82,361.52 C401.82,360.373328 402.036665,359.373338 402.47,358.52 C402.903336,357.666662 403.499996,357.013336 404.26,356.56 C405.020004,356.106664 405.886662,355.88 406.86,355.88 Z M407.38,357.5 C406.259994,357.5 405.363337,357.856663 404.69,358.57 C404.016663,359.283337 403.68,360.26666 403.68,361.52 C403.68,362.77334 404.016663,363.756663 404.69,364.47 C405.363337,365.183337 406.259994,365.54 407.38,365.54 C408.100004,365.54 408.743331,365.373335 409.31,365.04 C409.876669,364.706665 410.319998,364.23667 410.64,363.63 C410.960002,363.02333 411.12,362.320004 411.12,361.52 C411.12,360.719996 410.960002,360.013336 410.64,359.4 C410.319998,358.786664 409.876669,358.316668 409.31,357.99 C408.743331,357.663332 408.100004,357.5 407.38,357.5 Z M420.34,355.88 C421.406672,355.88 422.309996,356.146664 423.05,356.68 C423.790004,357.213336 424.306665,357.926662 424.6,358.82 L424.6,356.02 L426.42,356.02 L426.42,367 L424.6,367 L424.6,364.2 C424.306665,365.093338 423.790004,365.806664 423.05,366.34 C422.309996,366.873336 421.406672,367.14 420.34,367.14 C419.366662,367.14 418.500004,366.913336 417.74,366.46 C416.979996,366.006664 416.383335,365.356671 415.95,364.51 C415.516664,363.663329 415.3,362.666672 415.3,361.52 C415.3,360.373328 415.516664,359.373338 415.95,358.52 C416.383335,357.666662 416.979996,357.013336 417.74,356.56 C418.500004,356.106664 419.366662,355.88 420.34,355.88 Z M420.86,357.5 C419.739994,357.5 418.843337,357.856663 418.17,358.57 C417.496663,359.283337 417.16,360.26666 417.16,361.52 C417.16,362.77334 417.496663,363.756663 418.17,364.47 C418.843337,365.183337 419.739994,365.54 420.86,365.54 C421.580004,365.54 422.22333,365.373335 422.79,365.04 C423.35667,364.706665 423.799998,364.23667 424.12,363.63 C424.440002,363.02333 424.6,362.320004 424.6,361.52 C424.6,360.719996 424.440002,360.013336 424.12,359.4 C423.799998,358.786664 423.35667,358.316668 422.79,357.99 C422.22333,357.663332 421.580004,357.5 420.86,357.5 Z M434.56,365.4 L434.56,367 L433.2,367 C432.079994,367 431.243336,366.733336 430.69,366.2 C430.136664,365.666664 429.86,364.77334 429.86,363.52 L429.86,357.6 L428.22,357.6 L428.22,356.02 L429.86,356.02 L429.86,353.28 L431.7,353.28 L431.7,356.02 L434.54,356.02 L434.54,357.6 L431.7,357.6 L431.7,363.56 C431.7,364.26667 431.829999,364.749999 432.09,365.01 C432.350001,365.270001 432.799997,365.4 433.44,365.4 L434.56,365.4 Z M446.88,360.9 C446.88,361.286669 446.853334,361.619999 446.8,361.9 L438.02,361.9 C438.06,363.15334 438.416663,364.09333 439.09,364.72 C439.763337,365.34667 440.586662,365.66 441.56,365.66 C442.440004,365.66 443.176664,365.436669 443.77,364.99 C444.363336,364.543331 444.726666,363.94667 444.86,363.2 L446.8,363.2 C446.666666,363.960004 446.370002,364.639997 445.91,365.24 C445.449998,365.840003 444.853337,366.306665 444.12,366.64 C443.386663,366.973335 442.560005,367.14 441.64,367.14 C440.586661,367.14 439.653337,366.913336 438.84,366.46 C438.026663,366.006664 437.390002,365.356671 436.93,364.51 C436.469998,363.663329 436.24,362.666672 436.24,361.52 C436.24,360.373328 436.469998,359.373338 436.93,358.52 C437.390002,357.666662 438.026663,357.013336 438.84,356.56 C439.653337,356.106664 440.586661,355.88 441.64,355.88 C442.706672,355.88 443.636663,356.106664 444.43,356.56 C445.223337,357.013336 445.829998,357.619996 446.25,358.38 C446.670002,359.140004 446.88,359.979995 446.88,360.9 Z M445.04,361.02 C445.08,360.206663 444.946668,359.526669 444.64,358.98 C444.333332,358.433331 443.913336,358.026668 443.38,357.76 C442.846664,357.493332 442.26667,357.36 441.64,357.36 C440.639995,357.36 439.800003,357.669997 439.12,358.29 C438.439997,358.910003 438.073334,359.819994 438.02,361.02 L445.04,361.02 Z" id="Update" fill="#000000" fill-rule="nonzero"></path>
        <path d="M171.94,113.9 L171.94,122.36 C171.94,123.746674 172.246664,124.769997 172.86,125.43 C173.473336,126.090003 174.319995,126.42 175.4,126.42 C176.466672,126.42 177.299997,126.08667 177.9,125.42 C178.500003,124.75333 178.8,123.73334 178.8,122.36 L178.8,113.9 L180.62,113.9 L180.62,122.36 C180.62,124.28001 180.143338,125.723329 179.19,126.69 C178.236662,127.656672 176.960008,128.14 175.36,128.14 C173.773325,128.14 172.503338,127.656672 171.55,126.69 C170.596662,125.723329 170.12,124.28001 170.12,122.36 L170.12,113.9 L171.94,113.9 Z M186.88,116.88 C188.120006,116.88 189.116663,117.20333 189.87,117.85 C190.623337,118.49667 191.079999,119.366661 191.24,120.46 L189.5,120.46 C189.42,119.806663 189.150002,119.270002 188.69,118.85 C188.229998,118.429998 187.613337,118.22 186.84,118.22 C186.186663,118.22 185.676669,118.376665 185.31,118.69 C184.943331,119.003335 184.76,119.426664 184.76,119.96 C184.76,120.360002 184.883332,120.683332 185.13,120.93 C185.376668,121.176668 185.683332,121.363333 186.05,121.49 C186.416668,121.616667 186.919997,121.753333 187.56,121.9 C188.373337,122.086668 189.029998,122.276666 189.53,122.47 C190.030002,122.663334 190.456665,122.973331 190.81,123.4 C191.163335,123.826669 191.34,124.399996 191.34,125.12 C191.34,126.013338 191.003337,126.739997 190.33,127.3 C189.656663,127.860003 188.760006,128.14 187.64,128.14 C186.333327,128.14 185.266671,127.82667 184.44,127.2 C183.613329,126.57333 183.126667,125.700006 182.98,124.58 L184.74,124.58 C184.806667,125.24667 185.096664,125.786665 185.61,126.2 C186.123336,126.613335 186.799996,126.82 187.64,126.82 C188.26667,126.82 188.756665,126.660002 189.11,126.34 C189.463335,126.019998 189.64,125.600003 189.64,125.08 C189.64,124.653331 189.513335,124.313335 189.26,124.06 C189.006665,123.806665 188.693335,123.613334 188.32,123.48 C187.946665,123.346666 187.433337,123.206667 186.78,123.06 C185.966663,122.873332 185.316669,122.686668 184.83,122.5 C184.343331,122.313332 183.930002,122.016669 183.59,121.61 C183.249998,121.203331 183.08,120.653337 183.08,119.96 C183.08,119.039995 183.419997,118.29667 184.1,117.73 C184.780003,117.163331 185.706661,116.88 186.88,116.88 Z M203.88,121.9 C203.88,122.286669 203.853334,122.619999 203.8,122.9 L195.02,122.9 C195.06,124.15334 195.416663,125.09333 196.09,125.72 C196.763337,126.34667 197.586662,126.66 198.56,126.66 C199.440004,126.66 200.176664,126.436669 200.77,125.99 C201.363336,125.543331 201.726666,124.94667 201.86,124.2 L203.8,124.2 C203.666666,124.960004 203.370002,125.639997 202.91,126.24 C202.449998,126.840003 201.853337,127.306665 201.12,127.64 C200.386663,127.973335 199.560005,128.14 198.64,128.14 C197.586661,128.14 196.653337,127.913336 195.84,127.46 C195.026663,127.006664 194.390002,126.356671 193.93,125.51 C193.469998,124.663329 193.24,123.666672 193.24,122.52 C193.24,121.373328 193.469998,120.373338 193.93,119.52 C194.390002,118.666662 195.026663,118.013336 195.84,117.56 C196.653337,117.106664 197.586661,116.88 198.64,116.88 C199.706672,116.88 200.636663,117.106664 201.43,117.56 C202.223337,118.013336 202.829998,118.619996 203.25,119.38 C203.670002,120.140004 203.88,120.979995 203.88,121.9 Z M202.04,122.02 C202.08,121.206663 201.946668,120.526669 201.64,119.98 C201.333332,119.433331 200.913336,119.026668 200.38,118.76 C199.846664,118.493332 199.26667,118.36 198.64,118.36 C197.639995,118.36 196.800003,118.669997 196.12,119.29 C195.439997,119.910003 195.073334,120.819994 195.02,122.02 L202.04,122.02 Z M208.08,119.24 C208.440002,118.479996 208.966663,117.890002 209.66,117.47 C210.353337,117.049998 211.179995,116.84 212.14,116.84 L212.14,118.82 L211.58,118.82 C210.553328,118.82 209.713337,119.083331 209.06,119.61 C208.406663,120.136669 208.08,121.006661 208.08,122.22 L208.08,128 L206.26,128 L206.26,117.02 L208.08,117.02 L208.08,119.24 Z M223.38,116.88 C224.446672,116.88 225.349996,117.146664 226.09,117.68 C226.830004,118.213336 227.346665,118.926662 227.64,119.82 L227.64,117.02 L229.46,117.02 L229.46,128 L227.64,128 L227.64,125.2 C227.346665,126.093338 226.830004,126.806664 226.09,127.34 C225.349996,127.873336 224.446672,128.14 223.38,128.14 C222.406662,128.14 221.540004,127.913336 220.78,127.46 C220.019996,127.006664 219.423336,126.356671 218.99,125.51 C218.556665,124.663329 218.34,123.666672 218.34,122.52 C218.34,121.373328 218.556665,120.373338 218.99,119.52 C219.423336,118.666662 220.019996,118.013336 220.78,117.56 C221.540004,117.106664 222.406662,116.88 223.38,116.88 Z M223.9,118.5 C222.779994,118.5 221.883337,118.856663 221.21,119.57 C220.536663,120.283337 220.2,121.26666 220.2,122.52 C220.2,123.77334 220.536663,124.756663 221.21,125.47 C221.883337,126.183337 222.779994,126.54 223.9,126.54 C224.620004,126.54 225.26333,126.373335 225.83,126.04 C226.39667,125.706665 226.839998,125.23667 227.16,124.63 C227.480002,124.02333 227.64,123.320004 227.64,122.52 C227.64,121.719996 227.480002,121.013336 227.16,120.4 C226.839998,119.786664 226.39667,119.316668 225.83,118.99 C225.26333,118.663332 224.620004,118.5 223.9,118.5 Z M237.22,116.88 C238.620007,116.88 239.779995,117.25333 240.7,118 C241.620005,118.74667 242.186666,119.74666 242.4,121 L240.48,121 C240.346666,120.213329 239.983336,119.596669 239.39,119.15 C238.796664,118.703331 238.060004,118.48 237.18,118.48 C236.539997,118.48 235.956669,118.626665 235.43,118.92 C234.903331,119.213335 234.480002,119.66333 234.16,120.27 C233.839998,120.87667 233.68,121.626662 233.68,122.52 C233.68,123.413338 233.839998,124.16333 234.16,124.77 C234.480002,125.37667 234.903331,125.826665 235.43,126.12 C235.956669,126.413335 236.539997,126.56 237.18,126.56 C238.060004,126.56 238.796664,126.333336 239.39,125.88 C239.983336,125.426664 240.346666,124.806671 240.48,124.02 L242.4,124.02 C242.186666,125.286673 241.620005,126.289996 240.7,127.03 C239.779995,127.770004 238.620007,128.14 237.22,128.14 C236.166661,128.14 235.233337,127.913336 234.42,127.46 C233.606663,127.006664 232.970002,126.356671 232.51,125.51 C232.049998,124.663329 231.82,123.666672 231.82,122.52 C231.82,121.373328 232.049998,120.373338 232.51,119.52 C232.970002,118.666662 233.606663,118.013336 234.42,117.56 C235.233337,117.106664 236.166661,116.88 237.22,116.88 Z M250.02,126.4 L250.02,128 L248.66,128 C247.539994,128 246.703336,127.733336 246.15,127.2 C245.596664,126.666664 245.32,125.77334 245.32,124.52 L245.32,118.6 L243.68,118.6 L243.68,117.02 L245.32,117.02 L245.32,114.28 L247.16,114.28 L247.16,117.02 L250,117.02 L250,118.6 L247.16,118.6 L247.16,124.56 C247.16,125.26667 247.289999,125.749999 247.55,126.01 C247.810001,126.270001 248.259997,126.4 248.9,126.4 L250.02,126.4 Z M251.92,113.8 C251.92,113.466665 252.033332,113.196668 252.26,112.99 C252.486668,112.783332 252.786665,112.68 253.16,112.68 C253.533335,112.68 253.833332,112.783332 254.06,112.99 C254.286668,113.196668 254.4,113.466665 254.4,113.8 C254.4,114.133335 254.286668,114.403332 254.06,114.61 C253.833332,114.816668 253.533335,114.92 253.16,114.92 C252.786665,114.92 252.486668,114.816668 252.26,114.61 C252.033332,114.403332 251.92,114.133335 251.92,113.8 Z M254.06,117.02 L254.06,128 L252.24,128 L252.24,117.02 L254.06,117.02 Z M261.96,116.88 C263.013339,116.88 263.956662,117.106664 264.79,117.56 C265.623337,118.013336 266.276664,118.666662 266.75,119.52 C267.223336,120.373338 267.46,121.373328 267.46,122.52 C267.46,123.666672 267.223336,124.663329 266.75,125.51 C266.276664,126.356671 265.623337,127.006664 264.79,127.46 C263.956662,127.913336 263.013339,128.14 261.96,128.14 C260.906661,128.14 259.963337,127.913336 259.13,127.46 C258.296662,127.006664 257.640002,126.356671 257.16,125.51 C256.679998,124.663329 256.44,123.666672 256.44,122.52 C256.44,121.373328 256.679998,120.373338 257.16,119.52 C257.640002,118.666662 258.296662,118.013336 259.13,117.56 C259.963337,117.106664 260.906661,116.88 261.96,116.88 Z M261.96,118.48 C261.306663,118.48 260.703336,118.626665 260.15,118.92 C259.596664,119.213335 259.150002,119.66333 258.81,120.27 C258.469998,120.87667 258.3,121.626662 258.3,122.52 C258.3,123.400004 258.469998,124.14333 258.81,124.75 C259.150002,125.35667 259.596664,125.806665 260.15,126.1 C260.703336,126.393335 261.306663,126.54 261.96,126.54 C262.613337,126.54 263.216664,126.393335 263.77,126.1 C264.323336,125.806665 264.769998,125.35667 265.11,124.75 C265.450002,124.14333 265.62,123.400004 265.62,122.52 C265.62,121.626662 265.450002,120.87667 265.11,120.27 C264.769998,119.66333 264.323336,119.213335 263.77,118.92 C263.216664,118.626665 262.613337,118.48 261.96,118.48 Z M275.62,116.84 C276.900006,116.84 277.933329,117.249996 278.72,118.07 C279.506671,118.890004 279.9,120.073326 279.9,121.62 L279.9,128 L278.08,128 L278.08,121.78 C278.08,120.686661 277.800003,119.84667 277.24,119.26 C276.679997,118.67333 275.920005,118.38 274.96,118.38 C273.959995,118.38 273.160003,118.70333 272.56,119.35 C271.959997,119.99667 271.66,120.939994 271.66,122.18 L271.66,128 L269.84,128 L269.84,117.02 L271.66,117.02 L271.66,119.62 C271.940001,118.726662 272.436663,118.040002 273.15,117.56 C273.863337,117.079998 274.686662,116.84 275.62,116.84 Z" id="Useraction" fill="#000000" fill-rule="nonzero"></path>
        <path d="M762.88,113.9 L762.88,122.36 C762.88,123.746674 763.186664,124.769997 763.8,125.43 C764.413336,126.090003 765.259995,126.42 766.34,126.42 C767.406672,126.42 768.239997,126.08667 768.84,125.42 C769.440003,124.75333 769.74,123.73334 769.74,122.36 L769.74,113.9 L771.56,113.9 L771.56,122.36 C771.56,124.28001 771.083338,125.723329 770.13,126.69 C769.176662,127.656672 767.900008,128.14 766.3,128.14 C764.713325,128.14 763.443338,127.656672 762.49,126.69 C761.536662,125.723329 761.06,124.28001 761.06,122.36 L761.06,113.9 L762.88,113.9 Z M780.44,116.88 C781.413338,116.88 782.279996,117.106664 783.04,117.56 C783.800004,118.013336 784.396665,118.666662 784.83,119.52 C785.263336,120.373338 785.48,121.373328 785.48,122.52 C785.48,123.666672 785.263336,124.663329 784.83,125.51 C784.396665,126.356671 783.800004,127.006664 783.04,127.46 C782.279996,127.913336 781.413338,128.14 780.44,128.14 C779.373328,128.14 778.470004,127.870003 777.73,127.33 C776.989996,126.789997 776.480001,126.080004 776.2,125.2 L776.2,133.2 L774.38,133.2 L774.38,117.02 L776.2,117.02 L776.2,119.82 C776.480001,118.939996 776.989996,118.230003 777.73,117.69 C778.470004,117.149997 779.373328,116.88 780.44,116.88 Z M779.92,118.5 C779.21333,118.5 778.573336,118.663332 778,118.99 C777.426664,119.316668 776.980002,119.786664 776.66,120.4 C776.339998,121.013336 776.18,121.719996 776.18,122.52 C776.18,123.320004 776.339998,124.02333 776.66,124.63 C776.980002,125.23667 777.426664,125.706665 778,126.04 C778.573336,126.373335 779.21333,126.54 779.92,126.54 C781.053339,126.54 781.956663,126.183337 782.63,125.47 C783.303337,124.756663 783.64,123.77334 783.64,122.52 C783.64,121.26666 783.303337,120.283337 782.63,119.57 C781.956663,118.856663 781.053339,118.5 779.92,118.5 Z M792.36,116.88 C793.426672,116.88 794.329996,117.146664 795.07,117.68 C795.810004,118.213336 796.326665,118.926662 796.62,119.82 L796.62,113.2 L798.44,113.2 L798.44,128 L796.62,128 L796.62,125.2 C796.326665,126.093338 795.810004,126.806664 795.07,127.34 C794.329996,127.873336 793.426672,128.14 792.36,128.14 C791.386662,128.14 790.520004,127.913336 789.76,127.46 C788.999996,127.006664 788.403336,126.356671 787.97,125.51 C787.536665,124.663329 787.32,123.666672 787.32,122.52 C787.32,121.373328 787.536665,120.373338 787.97,119.52 C788.403336,118.666662 788.999996,118.013336 789.76,117.56 C790.520004,117.106664 791.386662,116.88 792.36,116.88 Z M792.88,118.5 C791.759994,118.5 790.863337,118.856663 790.19,119.57 C789.516663,120.283337 789.18,121.26666 789.18,122.52 C789.18,123.77334 789.516663,124.756663 790.19,125.47 C790.863337,126.183337 791.759994,126.54 792.88,126.54 C793.600004,126.54 794.24333,126.373335 794.81,126.04 C795.37667,125.706665 795.819998,125.23667 796.14,124.63 C796.460002,124.02333 796.62,123.320004 796.62,122.52 C796.62,121.719996 796.460002,121.013336 796.14,120.4 C795.819998,119.786664 795.37667,119.316668 794.81,118.99 C794.24333,118.663332 793.600004,118.5 792.88,118.5 Z M805.84,116.88 C806.906672,116.88 807.809996,117.146664 808.55,117.68 C809.290004,118.213336 809.806665,118.926662 810.1,119.82 L810.1,117.02 L811.92,117.02 L811.92,128 L810.1,128 L810.1,125.2 C809.806665,126.093338 809.290004,126.806664 808.55,127.34 C807.809996,127.873336 806.906672,128.14 805.84,128.14 C804.866662,128.14 804.000004,127.913336 803.24,127.46 C802.479996,127.006664 801.883336,126.356671 801.45,125.51 C801.016665,124.663329 800.8,123.666672 800.8,122.52 C800.8,121.373328 801.016665,120.373338 801.45,119.52 C801.883336,118.666662 802.479996,118.013336 803.24,117.56 C804.000004,117.106664 804.866662,116.88 805.84,116.88 Z M806.36,118.5 C805.239994,118.5 804.343337,118.856663 803.67,119.57 C802.996663,120.283337 802.66,121.26666 802.66,122.52 C802.66,123.77334 802.996663,124.756663 803.67,125.47 C804.343337,126.183337 805.239994,126.54 806.36,126.54 C807.080004,126.54 807.72333,126.373335 808.29,126.04 C808.856669,125.706665 809.299998,125.23667 809.62,124.63 C809.940002,124.02333 810.1,123.320004 810.1,122.52 C810.1,121.719996 809.940002,121.013336 809.62,120.4 C809.299998,119.786664 808.856669,119.316668 808.29,118.99 C807.72333,118.663332 807.080004,118.5 806.36,118.5 Z M820.06,126.4 L820.06,128 L818.7,128 C817.579994,128 816.743336,127.733336 816.19,127.2 C815.636664,126.666664 815.36,125.77334 815.36,124.52 L815.36,118.6 L813.72,118.6 L813.72,117.02 L815.36,117.02 L815.36,114.28 L817.2,114.28 L817.2,117.02 L820.04,117.02 L820.04,118.6 L817.2,118.6 L817.2,124.56 C817.2,125.26667 817.329999,125.749999 817.59,126.01 C817.850001,126.270001 818.299997,126.4 818.94,126.4 L820.06,126.4 Z M832.38,121.9 C832.38,122.286669 832.353334,122.619999 832.3,122.9 L823.52,122.9 C823.56,124.15334 823.916663,125.09333 824.59,125.72 C825.263337,126.34667 826.086662,126.66 827.06,126.66 C827.940004,126.66 828.676664,126.436669 829.27,125.99 C829.863336,125.543331 830.226666,124.94667 830.36,124.2 L832.3,124.2 C832.166666,124.960004 831.870002,125.639997 831.41,126.24 C830.949998,126.840003 830.353337,127.306665 829.62,127.64 C828.886663,127.973335 828.060005,128.14 827.14,128.14 C826.086661,128.14 825.153337,127.913336 824.34,127.46 C823.526663,127.006664 822.890002,126.356671 822.43,125.51 C821.969998,124.663329 821.74,123.666672 821.74,122.52 C821.74,121.373328 821.969998,120.373338 822.43,119.52 C822.890002,118.666662 823.526663,118.013336 824.34,117.56 C825.153337,117.106664 826.086661,116.88 827.14,116.88 C828.206672,116.88 829.136663,117.106664 829.93,117.56 C830.723337,118.013336 831.329998,118.619996 831.75,119.38 C832.170002,120.140004 832.38,120.979995 832.38,121.9 Z M830.54,122.02 C830.58,121.206663 830.446668,120.526669 830.14,119.98 C829.833332,119.433331 829.413336,119.026668 828.88,118.76 C828.346664,118.493332 827.76667,118.36 827.14,118.36 C826.139995,118.36 825.300003,118.669997 824.62,119.29 C823.939997,119.910003 823.573334,120.819994 823.52,122.02 L830.54,122.02 Z" id="Update" fill="#000000" fill-rule="nonzero"></path>
        <path d="M340.777778,145.5 L98,145.5 L98,311 C98,311.552285 97.5522847,312 97,312 C96.4477153,312 96,311.552285 96,311 L96,144.5 C96,143.947715 96.4477153,143.5 97,143.5 L340.777778,143.5 L340.777778,138.335115 C340.777778,137.873894 341.151672,137.5 341.612893,137.5 C341.742541,137.5 341.870408,137.530185 341.986368,137.588165 L354.315954,143.752959 C354.728483,143.959223 354.895694,144.460854 354.689429,144.873383 C354.608621,145.035001 354.477572,145.16605 354.315954,145.246858 L341.986368,151.411652 C341.573839,151.617916 341.072208,151.450706 340.865943,151.038177 C340.807963,150.922216 340.777778,150.794349 340.777778,150.664702 L340.777778,145.5 L340.777778,145.5 Z" id="Path-5" fill="#000000" fill-rule="nonzero"></path>
        <path d="M879,297.777778 L879,145.5 L714,145.5 C713.447715,145.5 713,145.052285 713,144.5 C713,143.947715 713.447715,143.5 714,143.5 L880,143.5 C880.552285,143.5 881,143.947715 881,144.5 L881,297.777778 L886.164885,297.777778 C886.626106,297.777778 887,298.151672 887,298.612893 C887,298.742541 886.969815,298.870408 886.911835,298.986368 L880.747041,311.315954 C880.540777,311.728483 880.039146,311.895694 879.626617,311.689429 C879.464999,311.608621 879.33395,311.477572 879.253142,311.315954 L873.088348,298.986368 C872.882084,298.573839 873.049294,298.072208 873.461823,297.865943 C873.577784,297.807963 873.705651,297.777778 873.835298,297.777778 L879,297.777778 L879,297.777778 Z" id="Path-6" fill="#000000" fill-rule="nonzero"></path>
    </g>
</svg>