<?xml version="1.0" encoding="UTF-8"?>
<svg width="98px" height="21px" viewBox="0 0 98 21" version="1.1" xmlns="http://www.w3.org/2000/svg" xmlns:xlink="http://www.w3.org/1999/xlink">
    <!-- Generator: Sketch 55.2 (78181) - https://sketchapp.com -->
    <title>Normal_Logo-Black</title>
    <desc>Created with Sketch.</desc>
    <g id="Page-1" stroke="none" stroke-width="1" fill="none" fill-rule="evenodd">
        <g id="Normal_Logo-Black" fill="#000000" fill-rule="nonzero">
            <polygon id="Path" points="12.2032258 1.10322581 12.2032258 12.9096774 4.85806452 1.10322581 0 1.10322581 0 20.6419355 4.5483871 20.6419355 4.5483871 9.09677419 12.0870968 20.6419355 16.7419355 20.6419355 16.7419355 1.10322581"></polygon>
            <path d="M26.0516129,16.8 C24.0193548,16.8 22.6064516,15.2225806 22.6064516,13.1032258 C22.6064516,10.983871 23.8741935,9.37741935 26.0225806,9.37741935 C28.083871,9.37741935 29.4677419,10.983871 29.4677419,13.1032258 C29.4677419,15.1935484 28.2,16.8 26.0516129,16.8 M25.9935484,5.28387097 C21.3580645,5.28387097 18.0870968,8.72903226 18.0870968,13.1322581 C18.0870968,17.5064516 21.1645161,20.8935484 26.0225806,20.8935484 C30.8225806,20.8935484 33.9870968,17.4483871 33.9870968,13.0451613 C33.9870968,8.67096774 30.9387097,5.28387097 25.9935484,5.28387097" id="Shape"></path>
            <path d="M39.7645161,6.58064516 L39.7645161,5.53548387 L35.216129,5.53548387 L35.216129,20.6419355 L39.7645161,20.6419355 L39.7645161,11.6322581 C39.7645161,10.7032258 40.0741935,10.2193548 41.2935484,10.2193548 L42.4258065,10.2193548 L42.4258065,5.4483871 C41.0709677,5.4483871 40.3354839,5.84516129 39.7645161,6.58064516" id="Path"></path>
            <path d="M78.9483871,17.2258065 C77.9612903,17.2258065 77.2258065,16.5193548 77.2258065,15.5322581 C77.2258065,14.5741935 77.9322581,13.8677419 78.9193548,13.8677419 C79.9064516,13.8677419 80.6709677,14.516129 80.6709677,15.5322581 C80.6709677,16.5193548 79.9354839,17.2258065 78.9483871,17.2258065 M79.083871,5.36129032 C75.3870968,5.36129032 73.6064516,7.2 73.5193548,10.2483871 L77.7290323,10.2483871 C77.7290323,9.65806452 78.0387097,8.9516129 79.1129032,8.9516129 C80.2451613,8.9516129 80.583871,9.74516129 80.583871,10.5870968 L80.583871,11.2064516 C80.1870968,10.9548387 79.3451613,10.6741935 78.0967742,10.6741935 C74.9612903,10.6741935 72.9290323,12.6483871 72.9580645,15.6483871 C72.9870968,18.8709677 75.2709677,20.816129 78.2419355,20.816129 C79.683871,20.816129 80.6419355,20.4483871 81.3483871,19.8290323 L81.3483871,20.6516129 L85.0741935,20.6516129 L85.0741935,11.2741935 C85.0741935,7.87741935 83.8064516,5.36129032 79.083871,5.36129032" id="Shape"></path>
            <rect id="Rectangle" x="86.4967742" y="0" width="4.5483871" height="20.6419355"></rect>
            <path d="M95.1387097,15.416129 C93.5322581,15.416129 92.3709677,16.6064516 92.3709677,18.183871 C92.3709677,19.7612903 93.5612903,20.9806452 95.1387097,20.9806452 C96.716129,20.9806452 97.9064516,19.7709677 97.9064516,18.183871 C97.9064516,16.5967742 96.7451613,15.416129 95.1387097,15.416129" id="Path"></path>
            <path d="M66.5322581,5.36129032 C64.7709677,5.36129032 63.7354839,5.99032258 63.0677419,6.54193548 L63.0677419,6.54193548 L62.7483871,6.82258065 C62.7483871,6.82258065 62.7483871,6.82258065 62.7483871,6.82258065 C61.9064516,5.92258065 60.6193548,5.37096774 58.7612903,5.37096774 C56.7870968,5.37096774 55.7129032,6.16451613 55.0645161,6.75483871 C54.3290323,5.90322581 53.2258065,5.37096774 51.5612903,5.37096774 C49.6451613,5.37096774 48.7354839,6.16451613 48.3967742,6.50322581 L48.3967742,5.54516129 L43.8483871,5.54516129 L43.8483871,20.6516129 L48.3967742,20.6516129 L48.3967742,11.216129 C48.3967742,10.1129032 48.9870968,9.40645161 50.0322581,9.40645161 C51.1064516,9.40645161 51.6677419,10.1419355 51.6677419,11.2451613 L51.6677419,20.6516129 L56.216129,20.6516129 L56.216129,11.2451613 C56.216129,10.2580645 56.7483871,9.40645161 57.8516129,9.40645161 C58.9258065,9.40645161 59.4870968,10.1419355 59.4870968,11.2451613 L59.4870968,20.6516129 L64.0354839,20.6516129 L64.0354839,10.7419355 C64.1903226,9.97741935 64.7129032,9.40645161 65.6225806,9.40645161 C66.6967742,9.40645161 67.2580645,10.1419355 67.2580645,11.2451613 L67.2580645,20.6516129 L71.806502,20.6516129 L71.806502,10.7032258 C71.816129,7.79032258 70.4322581,5.36129032 66.5322581,5.36129032" id="Path"></path>
        </g>
    </g>
</svg>